<?xml version="1.0" encoding="utf-8"?>
<!-- Generator: Adobe Illustrator 22.1.0, SVG Export Plug-In . SVG Version: 6.00 Build 0)  -->
<svg version="1.1" id="Слой_1" xmlns="http://www.w3.org/2000/svg" xmlns:xlink="http://www.w3.org/1999/xlink" x="0px" y="0px"
	 viewBox="0 0 372.1 454.4" style="enable-background:new 0 0 372.1 454.4;" xml:space="preserve">
<style type="text/css">
	.st0{fill:url(#SVGID_1_);fill-opacity:0.3;}
	.st1{fill:url(#SVGID_2_);}
	.st2{fill:#F2F2F2;filter:url(#Adobe_OpacityMaskFilter);}
	.st3{mask:url(#mask0_1_);}
	.st4{fill:none;}
</style>
<linearGradient id="SVGID_1_" gradientUnits="userSpaceOnUse" x1="98.1252" y1="458.1129" x2="318.0912" y2="72.0489" gradientTransform="matrix(1 0 0 -1 0 451.691)">
	<stop  offset="0.1315" style="stop-color:#0099DE"/>
	<stop  offset="0.3951" style="stop-color:#9B51E0"/>
</linearGradient>
<path class="st0" d="M111.3,34.3c45.6-65,115.4-30.1,210.8,42.9c47.7,35.3,49.7,74.7,48.7,108c-1.2,41.6-11.5,65.3-39.3,102.5
	c-27.8,37.2-100.6,32.9-114.8,39.9c-14.1,7-39,17.6-52.1,23.3c-13.1,5.8-63.6,2.2-111.2-107.8c-47.9-110.9,20-103,37.3-123.9
	C108.1,98.2,91.5,61.5,111.3,34.3z"/>
<linearGradient id="SVGID_2_" gradientUnits="userSpaceOnUse" x1="232.4286" y1="17.3438" x2="108.3087" y2="363.5607" gradientTransform="matrix(1 0 0 -1 0 451.691)">
	<stop  offset="0" style="stop-color:#D6F0E3"/>
	<stop  offset="1" style="stop-color:#DCF5E9"/>
</linearGradient>
<path class="st1" d="M362.6,267.5c36.2,80.5-34.5,126.6-154.9,175.4c-59.1,25-97.1,4.4-127.8-15.6c-38.4-25-55-48.3-74.8-95.9
	S29,217.1,30.1,199.7s4.7-47,6.4-62.7c1.7-15.7,32.5-61.6,161.6-43.8c130.1,18,85.8,77.8,96,106.3
	C304.3,227.9,353.8,248,362.6,267.5z"/>
<defs>
	<filter id="Adobe_OpacityMaskFilter" filterUnits="userSpaceOnUse" x="-102" y="38.5" width="543.9" height="386.7">
		<feColorMatrix  type="matrix" values="1 0 0 0 0  0 1 0 0 0  0 0 1 0 0  0 0 0 1 0"/>
	</filter>
</defs>
<mask maskUnits="userSpaceOnUse" x="-102" y="38.5" width="543.9" height="386.7" id="mask0_1_">
	<path class="st2" d="M5.7,157.6C-1.7,66.2,86,45.8,224.6,40.3c68.4-3.8,99.2,29.7,122.9,60.1c29.6,37.9,37.9,66.5,40.6,120.1
		c2.8,53.6-60.7,103.9-72.6,120.1c-10.8,14.7-21.7,44.3-29.1,59.1c-7.4,14.8-54.9,48.9-178.3-13.9C-16.1,322.6,50,279.6,50,248.2
		C50,216.7,12,206.6,5.7,157.6z"/>
</mask>
<g class="st3">
	<rect x="-102" y="38.5" class="st4" width="543.9" height="386.7"/>
</g>
</svg>
