<svg width="53" height="53" viewBox="0 0 53 53" fill="none" xmlns="http://www.w3.org/2000/svg">
<circle cx="26.6823" cy="26.5392" r="25.4088" stroke="url(#paint0_linear)"/>
<g clip-path="url(#clip0)">
<path d="M41.1322 24.5969C41.2609 19.9947 38.7294 15.5614 34.7818 13.1125C34.7389 13.0702 34.6531 13.028 34.6102 12.9858L35.9403 8.13024C35.9832 7.91913 35.9403 7.75024 35.8116 7.58135C35.7258 7.45468 35.5541 7.37024 35.3396 7.37024H27.9594C27.7449 7.37024 27.5732 7.45468 27.4445 7.62357C27.3587 7.79246 27.3158 7.96135 27.3587 8.17246L28.6888 13.028C24.6555 15.4347 22.1668 19.6991 22.1668 24.2591C22.1668 25.1458 22.2526 25.9902 22.4242 26.8347H22.1668C21.1799 26.8347 20.2359 27.2147 19.5494 27.848L16.6316 30.5925C16.2454 30.3814 15.8164 30.2969 15.3444 30.2969C14.6149 30.2969 13.9284 30.5925 13.4135 31.0569L9.68049 34.6458C9.16559 35.1525 8.86523 35.828 8.86523 36.5458C8.86523 37.2636 9.12268 37.9813 9.63758 38.488L15.6876 44.568C16.2025 45.0747 16.932 45.3702 17.6614 45.3702C18.3909 45.3702 19.0774 45.0747 19.5923 44.6102L23.3253 41.0214C23.8402 40.5147 24.1406 39.8391 24.1406 39.1213C24.1406 38.6991 24.0547 38.2769 23.8402 37.8969L23.9689 37.7702C24.6984 37.2214 25.5565 36.968 26.4576 36.968H32.2073C33.6662 36.968 35.0822 36.4614 36.1978 35.5747L39.373 33.0413C39.5017 32.9569 39.6304 32.8725 39.7592 32.7458L39.8021 32.7036L44.3074 27.9747C44.6078 27.6369 44.8223 27.2147 44.8223 26.7502C44.8223 26.2436 44.6078 25.7791 44.2216 25.4414C43.4493 24.5547 42.2478 24.3436 41.1322 24.5969ZM23.454 24.2591C23.454 20.0369 25.814 16.1102 29.6328 13.9569H31.0917C31.435 13.9569 31.7353 13.6614 31.7353 13.3236C31.7353 12.9858 31.435 12.6902 31.0917 12.6902H29.9332L28.8176 8.63691H34.5244L33.4087 12.6902H33.3229C32.9797 12.6902 32.6793 12.9858 32.6793 13.3236C32.6793 13.6614 32.9797 13.9569 33.3229 13.9569H33.7091C37.5279 16.1102 39.8879 20.0369 39.8879 24.2591C39.8879 24.5969 39.845 24.9769 39.845 25.3147C39.7592 25.3991 39.6733 25.4414 39.6304 25.5258L37.485 27.7636L36.9701 28.0591L35.5541 28.988C35.1251 28.5236 34.4814 28.1858 33.752 28.1858H28.8176L27.7449 27.5102C27.1012 27.0458 26.3289 26.8347 25.5565 26.8347H23.7115C23.5398 25.9902 23.454 25.1036 23.454 24.2591ZM22.4242 40.0925L18.6912 43.6814C18.1334 44.2302 17.1465 44.2302 16.5887 43.6391L10.5816 37.6014C10.3241 37.3058 10.1525 36.968 10.1525 36.588C10.1525 36.208 10.3241 35.828 10.5816 35.5747L14.3146 31.9858C14.572 31.7325 14.9582 31.5636 15.3444 31.5636C15.7306 31.5636 16.1167 31.7325 16.4171 31.9858L22.4671 38.0658C22.7246 38.3613 22.8962 38.6991 22.8962 39.0791C22.8533 39.4591 22.7246 39.8391 22.4242 40.0925ZM43.4493 27.088L38.9868 31.7747L38.6435 32.0702L38.6006 32.1125L35.4683 34.6036C34.5673 35.3214 33.4516 35.7013 32.2931 35.7013H26.5434C25.3849 35.7013 24.2264 36.0814 23.2824 36.7569L23.1108 36.8836L17.6614 31.3947L20.4505 28.7347C20.9224 28.3125 21.5232 28.0591 22.1668 28.0591H25.5565C26.0714 28.0591 26.5863 28.228 27.0154 28.5236L28.2168 29.368C28.2598 29.368 28.2598 29.4102 28.3027 29.4102H28.3456C28.3885 29.4102 28.3885 29.4102 28.4314 29.4525H28.4743H28.5172C28.5601 29.4525 28.5601 29.4525 28.603 29.4525H33.752C34.3527 29.4525 34.8676 29.9591 34.8676 30.5502C34.8676 31.1414 34.3527 31.648 33.752 31.648H27.7878C27.4445 31.648 27.1441 31.9436 27.1441 32.2814C27.1441 32.6191 27.4445 32.9147 27.7878 32.9147H33.752C35.0822 32.9147 36.1549 31.8591 36.1549 30.5502C36.1549 30.3814 36.1549 30.2547 36.112 30.0858L37.6567 29.1147L38.1716 28.8191C38.2145 28.7769 38.2574 28.7769 38.3003 28.7347L40.5315 26.4125C40.6173 26.328 40.746 26.2436 40.8319 26.1591C41.6042 25.6102 42.6769 25.6525 43.4064 26.328C43.5351 26.4547 43.578 26.5814 43.578 26.7502C43.578 26.7925 43.578 26.9614 43.4493 27.088Z" fill="url(#paint1_linear)"/>
<path d="M20.7072 40.5569C21.3945 40.5569 21.9516 40.0087 21.9516 39.3325C21.9516 38.6562 21.3945 38.108 20.7072 38.108C20.02 38.108 19.4629 38.6562 19.4629 39.3325C19.4629 40.0087 20.02 40.5569 20.7072 40.5569Z" fill="url(#paint2_linear)"/>
<path d="M31.5213 22.7391H31.6071C31.8646 22.7391 32.1649 22.8658 32.2936 23.0769C32.4653 23.288 32.5082 23.5836 32.4224 23.8369C32.3365 24.1325 32.0791 24.3436 31.7787 24.3858C31.6929 24.3858 31.65 24.428 31.5642 24.428C31.178 24.428 30.8348 24.1747 30.7489 23.8369C30.6631 23.5836 30.4057 23.4147 30.1482 23.4147C29.9337 23.4147 29.7191 23.4991 29.5904 23.668C29.4617 23.8369 29.333 24.048 29.4188 24.2169C29.6333 24.8925 30.3199 25.3991 30.7489 25.6102V26.2436C30.7489 26.5814 31.2638 26.8769 31.6071 26.8769C31.9504 26.8769 32.4653 26.5814 32.4653 26.2436V25.6102C32.8944 25.3991 33.4951 24.9769 33.7096 24.3858C34.01 23.7525 33.8812 22.9502 33.4951 22.2747C33.1518 21.7258 32.4224 21.3036 31.65 21.3036H31.6071C31.3067 21.3036 31.0493 21.2191 30.8777 20.9658C30.706 20.7125 30.706 20.4591 30.7918 20.1636C30.9206 19.9102 31.1351 19.7414 31.3926 19.6991C31.4355 19.6991 31.5213 19.6991 31.5642 19.6991C31.9504 19.6991 32.2936 19.9525 32.3795 20.2902C32.4653 20.5436 32.7227 20.7125 32.9802 20.7125C33.1947 20.7125 33.4092 20.628 33.538 20.4591C33.6667 20.2902 33.7954 20.0791 33.7525 19.9102C33.538 19.2769 32.8514 18.728 32.4224 18.5591V17.8836C32.4224 17.5458 31.9075 17.2502 31.5642 17.2502C31.2209 17.2502 30.706 17.5458 30.706 17.8836V18.5591C30.2769 18.728 29.6762 19.1925 29.4617 19.7836C29.1613 20.4591 29.333 21.2191 29.762 21.8947C30.1053 22.4014 30.7918 22.7391 31.5213 22.7391Z" fill="url(#paint3_linear)"/>
</g>
<defs>
<linearGradient id="paint0_linear" x1="26.6823" y1="0.630371" x2="26.6823" y2="52.448" gradientUnits="userSpaceOnUse">
<stop stop-color="#B3E0F5"/>
<stop offset="1" stop-color="#E1CBF6"/>
</linearGradient>
<linearGradient id="paint1_linear" x1="26.8438" y1="7.37024" x2="26.8438" y2="45.3702" gradientUnits="userSpaceOnUse">
<stop stop-color="#B3E0F5"/>
<stop offset="1" stop-color="#E1CBF6"/>
</linearGradient>
<linearGradient id="paint2_linear" x1="20.7072" y1="38.108" x2="20.7072" y2="40.5569" gradientUnits="userSpaceOnUse">
<stop stop-color="#B3E0F5"/>
<stop offset="1" stop-color="#E1CBF6"/>
</linearGradient>
<linearGradient id="paint3_linear" x1="31.5931" y1="17.2502" x2="31.5931" y2="26.8769" gradientUnits="userSpaceOnUse">
<stop stop-color="#B3E0F5"/>
<stop offset="1" stop-color="#E1CBF6"/>
</linearGradient>
<clipPath id="clip0">
<rect x="8.86523" y="7.37024" width="36" height="38" fill="white"/>
</clipPath>
</defs>
</svg>
