<svg width="52" height="53" viewBox="0 0 52 53" fill="none" xmlns="http://www.w3.org/2000/svg">
<circle cx="25.9088" cy="26.5392" r="25.4088" stroke="url(#paint0_linear)"/>
<g clip-path="url(#clip0)">
<path d="M34.3873 17.912V15.9885C34.9204 15.7622 35.3351 15.4228 35.6313 14.9702C37.2309 14.6874 38.2972 13.1599 37.9418 11.6324C37.5863 10.105 36.1053 9.14326 34.4465 9.42612C33.6764 9.59584 33.0247 9.99185 32.5508 10.6141C31.1882 10.897 30.1811 12.0285 30.1811 13.3862C30.1811 14.0085 30.3588 14.5742 30.7735 15.0834V17.912C30.7735 18.2514 30.5365 18.4777 30.1811 18.4777H28.1076C29.411 17.0634 29.2925 14.9136 27.8707 13.6691C26.3896 12.4245 24.1384 12.5376 22.8351 13.8953C21.5911 15.1965 21.5911 17.12 22.8351 18.4211H20.7617C20.4062 18.4211 20.1692 18.1948 20.1692 17.8554V15.0268C20.5839 14.5176 20.7617 13.9519 20.7617 13.3296C20.7617 11.9719 19.8138 10.8404 18.392 10.5576C17.5034 9.31298 15.6669 8.97355 14.3043 9.8787C12.9418 10.7839 12.5863 12.5376 13.5342 13.7822C13.9489 14.4045 14.6005 14.8005 15.3707 14.9702C15.6669 15.4228 16.1408 15.7622 16.6147 15.9885V17.912C16.6147 20.1183 18.4512 21.8721 20.7617 21.8721H21.5911L17.2664 30.6408C17.1479 30.9236 17.2664 31.2631 17.5626 31.3762C17.6219 31.4328 17.7403 31.4328 17.7996 31.4328H20.7617L20.2877 33.6957H18.9844C18.7474 33.6957 18.5697 33.8088 18.4512 33.9785L13.7119 42.4644C13.5342 42.7473 13.6527 43.0867 13.9489 43.2564C14.0081 43.313 14.1266 43.313 14.2451 43.313H36.7569C37.1124 43.313 37.3493 43.0301 37.3493 42.7473C37.3493 42.6341 37.3493 42.5775 37.2901 42.4644L32.5508 33.9785C32.4323 33.8088 32.2546 33.6957 32.0176 33.6957H30.7143L30.2403 31.4328H33.2024C33.5579 31.4328 33.7948 31.1499 33.7948 30.8671C33.7948 30.8105 33.7948 30.6973 33.7356 30.6408L29.411 21.8155H30.2403C32.4915 21.872 34.3873 20.0617 34.3873 17.912ZM34.9797 10.5576C35.9868 10.5576 36.7569 11.293 36.7569 12.2547C36.7569 12.7073 36.52 13.2165 36.1645 13.4993C36.1645 13.4428 36.1645 13.4428 36.1645 13.3862C36.1645 13.2165 36.1645 13.0468 36.1053 12.877C36.1053 12.8205 36.1053 12.7639 36.046 12.7073C36.046 12.5942 35.9868 12.481 35.9275 12.3679C35.9275 12.3113 35.8683 12.2547 35.8683 12.1982C35.8091 12.085 35.7498 11.9719 35.6906 11.8587C35.6906 11.8022 35.6313 11.8022 35.6313 11.7456C35.5129 11.6324 35.3944 11.5193 35.2759 11.4062L35.2166 11.3496C35.0982 11.2364 35.0389 11.1233 34.9204 11.0667L34.802 10.9536C34.6835 10.897 34.565 10.8404 34.5057 10.7839L34.3873 10.7273L34.328 10.6707C34.4465 10.6141 34.6835 10.5576 34.9797 10.5576ZM32.9655 11.689H33.0247H33.2024C34.2095 11.689 34.9797 12.4245 34.9797 13.3862C34.9797 13.4993 34.9797 13.6691 34.9204 13.7822C34.8612 13.8953 34.802 14.0651 34.7427 14.1782C34.5057 14.5742 34.0911 14.8571 33.6764 14.9702L33.4394 15.0268C33.3802 15.0834 33.2617 15.0834 33.1432 15.0834C33.0247 15.0834 32.9062 15.0834 32.7877 15.0268H32.7285C32.61 15.0268 32.5508 14.9702 32.4323 14.9136C32.1953 14.8005 32.0176 14.6874 31.8399 14.4611C31.5437 14.1782 31.3659 13.7256 31.3659 13.3296C31.4252 12.5376 32.0768 11.8022 32.9655 11.689ZM26.2119 19.6092L25.501 20.7972L24.7901 19.6092H26.2119ZM23.1313 16.2148C23.1313 14.9702 24.1977 13.9519 25.501 13.9519C26.8043 13.9519 27.8707 14.9702 27.8707 16.2148C27.8707 17.4594 26.8043 18.4777 25.501 18.4777C24.1977 18.4777 23.1313 17.4594 23.1313 16.2148ZM14.8375 13.4993C14.482 13.1599 14.2451 12.7073 14.2451 12.2547C14.2451 11.293 15.0745 10.5576 16.0223 10.5576C16.2593 10.5576 16.5555 10.6141 16.7925 10.7273H16.674L16.5555 10.8404C16.437 10.8404 16.3185 10.897 16.2001 11.0102L16.0816 11.0667C15.9631 11.1233 15.8446 11.2364 15.7854 11.3496L15.6669 11.4062C15.5484 11.5193 15.4299 11.6324 15.3707 11.7456C15.3707 11.8022 15.3114 11.8022 15.3114 11.8587C15.1929 11.9719 15.1337 12.085 15.0745 12.1982C15.0745 12.2547 15.0152 12.3113 15.0152 12.3679C15.0152 12.481 14.956 12.5942 14.8967 12.7073C14.8967 12.7639 14.8375 12.8205 14.8375 12.877C14.8375 13.0468 14.8375 13.2165 14.8375 13.3862C14.8375 13.3862 14.8375 13.4428 14.8375 13.4993ZM16.2593 14.2348C16.2001 14.0651 16.1408 13.9519 16.0816 13.8388C16.0223 13.6691 16.0223 13.4993 16.0223 13.3862C16.0223 12.4245 16.7925 11.689 17.7996 11.689H17.9181H17.9773C18.9252 11.8022 19.6361 12.5942 19.5768 13.5559C19.5176 13.8953 19.3991 14.2348 19.1029 14.5176C18.9252 14.6874 18.7474 14.8571 18.5105 14.9702C18.4512 14.9702 18.3328 15.0268 18.2143 15.0268H18.155C18.0365 15.0834 17.9181 15.0834 17.7403 15.0834C17.6811 15.0834 17.5626 15.0834 17.5034 15.0834L17.3256 15.0268C16.8517 14.9136 16.4963 14.6308 16.2593 14.2348ZM17.7996 17.912V16.2148C18.2143 16.2148 18.629 16.1582 18.9844 15.9885V17.912C18.9844 18.8737 19.7546 19.6092 20.7617 19.6092H23.3683L24.9678 22.1549C25.1456 22.4378 25.501 22.4943 25.7972 22.3246C25.8565 22.2681 25.9749 22.2115 25.9749 22.1549L27.5745 19.6092H30.1811C31.1882 19.6092 31.9583 18.8737 31.9583 17.912V15.9885C32.3138 16.1582 32.7285 16.2148 33.1432 16.2148V17.912C33.1432 19.496 31.8399 20.7406 30.1811 20.7406H28.4038C28.0484 20.7406 27.8114 20.9669 27.8114 21.3063V24.1349H23.0721V21.3063C23.0721 20.9669 22.8351 20.7406 22.4797 20.7406H20.7024C19.1029 20.7406 17.7996 19.4394 17.7996 17.912ZM18.7474 30.3579L21.9465 23.8521V25.7755L20.9986 30.3579H18.7474ZM15.2522 42.2381L17.3256 38.5609L19.2214 40.3712C19.4583 40.5975 19.8138 40.5975 20.0508 40.3712L22.5982 37.9386L25.1456 40.3712C25.3825 40.5975 25.738 40.5975 25.9749 40.3712L28.5223 37.9386L31.0697 40.3712C31.3067 40.5975 31.6621 40.5975 31.8991 40.3712L33.7948 38.5609L35.8683 42.2381H15.2522ZM33.1432 37.5426L31.4252 39.1832L28.8778 36.7506C28.6408 36.5243 28.2854 36.5243 28.0484 36.7506L25.501 39.1832L22.9536 36.7506C22.7166 36.5243 22.3612 36.5243 22.1242 36.7506L19.5768 39.1832L17.8588 37.5426L19.3399 34.8837H31.6621L33.1432 37.5426ZM25.0271 31.4894H25.9749L26.5081 33.7522H24.4347L25.0271 31.4894ZM25.264 30.3579L25.501 29.5093L25.738 30.3579H25.264ZM27.7522 33.7522L26.0934 26.8504C26.0342 26.5676 25.6787 26.3413 25.3825 26.4544C25.1456 26.511 25.0271 26.6807 24.9678 26.8504L23.2498 33.7522H21.4726L23.1313 25.9453C23.1313 25.8887 23.1313 25.8887 23.1313 25.8321V25.2664H27.8707V25.8321C27.8707 25.8887 27.8707 25.8887 27.8707 25.9453L29.5294 33.7522H27.7522ZM30.0034 30.3579L29.0555 25.7755V23.8521L32.2546 30.3579H30.0034Z" fill="url(#paint1_linear)"/>
</g>
<defs>
<linearGradient id="paint0_linear" x1="25.9088" y1="0.630371" x2="25.9088" y2="52.448" gradientUnits="userSpaceOnUse">
<stop stop-color="#98E1BE"/>
<stop offset="1" stop-color="#B2E1F3"/>
</linearGradient>
<linearGradient id="paint1_linear" x1="25.5061" y1="9.36731" x2="25.5061" y2="43.313" gradientUnits="userSpaceOnUse">
<stop stop-color="#98E1BE"/>
<stop offset="1" stop-color="#B2E1F3"/>
</linearGradient>
<clipPath id="clip0">
<rect x="13" y="9.37024" width="25" height="34" fill="white"/>
</clipPath>
</defs>
</svg>
