<svg width="53" height="53" viewBox="0 0 53 53" fill="none" xmlns="http://www.w3.org/2000/svg">
<circle cx="26.274" cy="26.5392" r="25.4088" stroke="url(#paint0_linear)"/>
<g clip-path="url(#clip0)">
<path d="M31.297 30.7965C31.647 30.7965 31.8804 30.5604 31.8804 30.2063V24.3047H34.2137C35.847 24.3047 37.1304 23.0063 37.1304 21.3538V15.9834C37.947 15.8063 38.4137 15.0391 38.297 14.2719C38.1804 13.6817 37.7137 13.2096 37.1304 13.0916V12.5014C37.1304 11.8522 36.6054 11.3211 35.9637 11.3211H34.2137C33.572 11.3211 33.047 11.8522 33.047 12.5014V19.5834H27.797V19.1702C29.197 18.462 30.1304 17.0456 30.1304 15.4522V12.5014C30.1304 11.203 29.0804 10.1407 27.797 10.1407H22.547C21.9054 10.1407 21.3804 9.60958 21.3804 8.9604C21.3804 8.6063 21.147 8.37024 20.797 8.37024C20.447 8.37024 20.2137 8.6063 20.2137 8.9604V11.3211C20.2137 12.3834 20.9137 13.3276 21.9637 13.6227V15.4522C21.9637 17.0456 22.897 18.5211 24.297 19.1702V19.5834H17.8804C16.247 19.5834 14.9637 20.8817 14.9637 22.5342V27.8456C14.147 28.0227 13.6804 28.7899 13.797 29.5571C13.9137 30.1473 14.3804 30.6194 14.9637 30.7375V31.3276C14.9637 31.9768 15.4887 32.5079 16.1304 32.5079H17.8804C18.522 32.5079 19.047 31.9768 19.047 31.3276V24.2456H20.2137V30.1473C20.2137 30.5014 20.447 30.7375 20.797 30.7375H21.3804V40.8883C20.6804 41.1243 20.2137 41.7735 20.2137 42.5407V43.7211C20.2137 44.0752 20.447 44.3112 20.797 44.3112H23.7137C24.7054 44.3112 25.4637 43.544 25.4637 42.5407V33.1571H26.6304V42.5997C26.6304 43.603 27.3887 44.3702 28.3804 44.3702H31.297C31.647 44.3702 31.8804 44.1342 31.8804 43.7801V42.5997C31.8804 41.8325 31.4137 41.1834 30.7137 40.9473V30.7965H31.297ZM34.2137 12.5014H35.9637V13.6817C35.9637 14.0358 36.197 14.2719 36.547 14.2719H36.8387C37.0137 14.2719 37.1304 14.3899 37.1304 14.567C37.1304 14.744 37.0137 14.862 36.8387 14.862H36.547C36.197 14.862 35.9637 15.0981 35.9637 15.4522V21.3538C35.9637 22.3571 35.2054 23.1243 34.2137 23.1243V12.5014ZM25.4637 20.1735V19.5834H26.6304V20.7637C26.6304 21.1178 26.397 21.3538 26.047 21.3538C25.697 21.3538 25.4637 21.1178 25.4637 20.7637V20.1735ZM21.3804 11.3211V11.026C21.7304 11.203 22.1387 11.3211 22.547 11.3211H27.797C28.4387 11.3211 28.9637 11.8522 28.9637 12.5014H22.547H22.4887C21.847 12.4424 21.3804 11.9702 21.3804 11.3211ZM23.1304 15.4522V13.6817H28.9637V15.4522C28.9637 17.1047 27.6804 18.403 26.047 18.403C24.4137 18.403 23.1304 17.0456 23.1304 15.4522ZM26.047 22.5342C27.0387 22.5342 27.797 21.767 27.797 20.7637H33.047V23.1243H31.297C31.0054 23.1243 30.7137 23.4194 30.7137 23.7145V29.6161H21.3804V23.7145C21.3804 23.5375 21.322 23.4194 21.2054 23.3014C21.0887 23.1834 20.972 23.1243 20.797 23.1243H19.047V22.3571V20.7637H24.297C24.297 21.767 25.0554 22.5342 26.047 22.5342ZM16.1304 31.3866V30.2063C16.1304 29.8522 15.897 29.6161 15.547 29.6161H15.2554C15.0804 29.6161 14.9637 29.4981 14.9637 29.3211C14.9637 29.144 15.0804 29.026 15.2554 29.026H15.547C15.897 29.026 16.1304 28.7899 16.1304 28.4358V22.5342C16.1304 21.5309 16.8887 20.7637 17.8804 20.7637V23.7145V31.3866H16.1304ZM24.297 42.5997C24.297 42.9538 24.0637 43.1899 23.7137 43.1899H21.3804V42.5997C21.3804 42.2457 21.6137 42.0096 21.9637 42.0096H24.297V42.5997ZM24.8804 31.9768C24.5304 31.9768 24.297 32.2129 24.297 32.567V40.8293H22.547V30.7965H29.547V40.8293H27.797V32.567C27.797 32.2129 27.5637 31.9768 27.2137 31.9768H24.8804ZM30.7137 43.1899H28.3804C28.0304 43.1899 27.797 42.9538 27.797 42.5997V42.0096H30.1304C30.4804 42.0096 30.7137 42.2457 30.7137 42.5997V43.1899Z" fill="url(#paint1_linear)"/>
<path d="M24.2962 15.4522C24.6184 15.4522 24.8796 15.188 24.8796 14.862C24.8796 14.5361 24.6184 14.2719 24.2962 14.2719C23.9741 14.2719 23.7129 14.5361 23.7129 14.862C23.7129 15.188 23.9741 15.4522 24.2962 15.4522Z" fill="url(#paint2_linear)"/>
<path d="M27.7962 15.4522C28.1184 15.4522 28.3796 15.188 28.3796 14.862C28.3796 14.5361 28.1184 14.2719 27.7962 14.2719C27.4741 14.2719 27.2129 14.5361 27.2129 14.862C27.2129 15.188 27.4741 15.4522 27.7962 15.4522Z" fill="url(#paint3_linear)"/>
<path d="M27.7969 16.0424H26.6302C26.6302 16.3965 26.3969 16.6325 26.0469 16.6325C25.6969 16.6325 25.4635 16.3965 25.4635 16.0424H24.2969C24.2969 17.0456 25.0552 17.8129 26.0469 17.8129C27.0385 17.8129 27.7969 17.0456 27.7969 16.0424Z" fill="url(#paint4_linear)"/>
<path d="M15.5469 16.9276V12.5014C15.5469 12.1473 15.3135 11.9112 14.9635 11.9112C14.9052 11.9112 14.8469 11.9112 14.7885 11.9112L10.7052 13.0915C10.4719 13.2096 10.2969 13.4456 10.2969 13.6817V16.6325H10.0052C9.18854 16.6325 8.54688 17.2817 8.54688 18.1079C8.54688 18.9341 9.18854 19.5833 10.0052 19.5833C10.8219 19.5833 11.4635 18.9341 11.4635 18.1079V14.1538L14.3802 13.3276V15.4522H14.0885C13.2719 15.4522 12.6302 16.1014 12.6302 16.9276C12.6302 17.7538 13.2719 18.403 14.0885 18.403C14.9052 18.403 15.5469 17.7538 15.5469 16.9276ZM10.2969 18.1079C10.2969 18.285 10.1802 18.403 10.0052 18.403C9.83021 18.403 9.71354 18.285 9.71354 18.1079C9.71354 17.9309 9.83021 17.8128 10.0052 17.8128H10.2969V18.1079ZM13.7969 16.9276C13.7969 16.7505 13.9135 16.6325 14.0885 16.6325H14.3802V16.9276C14.3802 17.1046 14.2635 17.2227 14.0885 17.2227C13.9135 17.2227 13.7969 17.1046 13.7969 16.9276Z" fill="url(#paint5_linear)"/>
<path d="M42.3796 8.96039H41.2129V10.1407H42.3796V8.96039Z" fill="url(#paint6_linear)"/>
<path d="M43.5475 10.1407H42.3809V11.3211H43.5475V10.1407Z" fill="url(#paint7_linear)"/>
<path d="M42.3796 11.321H41.2129V12.5014H42.3796V11.321Z" fill="url(#paint8_linear)"/>
<path d="M41.2135 10.1407H40.0469V11.3211H41.2135V10.1407Z" fill="url(#paint9_linear)"/>
<path d="M40.4546 27.2555L36.3712 28.4358C36.1379 28.4948 35.9629 28.7309 35.9629 29.026V31.9768H35.6712C34.8546 31.9768 34.2129 32.626 34.2129 33.4522C34.2129 34.2784 34.8546 34.9276 35.6712 34.9276C36.4879 34.9276 37.1296 34.2784 37.1296 33.4522V29.4981L40.0462 28.6719V30.7965H39.7546C38.9379 30.7965 38.2962 31.4457 38.2962 32.2719C38.2962 33.0981 38.9379 33.7473 39.7546 33.7473C40.5712 33.7473 41.2129 33.0981 41.2129 32.2719V27.8457C41.2129 27.4916 40.9796 27.2555 40.6296 27.2555C40.5712 27.2555 40.5129 27.2555 40.4546 27.2555ZM35.9629 33.4522C35.9629 33.6293 35.8462 33.7473 35.6712 33.7473C35.4962 33.7473 35.3796 33.6293 35.3796 33.4522C35.3796 33.2752 35.4962 33.1571 35.6712 33.1571H35.9629V33.4522ZM40.0462 32.2719C40.0462 32.4489 39.9296 32.567 39.7546 32.567C39.5796 32.567 39.4629 32.4489 39.4629 32.2719C39.4629 32.0948 39.5796 31.9768 39.7546 31.9768H40.0462V32.2719Z" fill="url(#paint10_linear)"/>
<path d="M16.1296 34.9276H14.9629V36.1079H16.1296V34.9276Z" fill="url(#paint11_linear)"/>
<path d="M17.2975 36.108H16.1309V37.2883H17.2975V36.108Z" fill="url(#paint12_linear)"/>
<path d="M16.1296 37.2883H14.9629V38.4686H16.1296V37.2883Z" fill="url(#paint13_linear)"/>
<path d="M14.9635 36.108H13.7969V37.2883H14.9635V36.108Z" fill="url(#paint14_linear)"/>
</g>
<defs>
<linearGradient id="paint0_linear" x1="26.274" y1="0.630371" x2="26.274" y2="52.448" gradientUnits="userSpaceOnUse">
<stop stop-color="#B3E0F5"/>
<stop offset="1" stop-color="#E1CBF6"/>
</linearGradient>
<linearGradient id="paint1_linear" x1="26.047" y1="8.37024" x2="26.047" y2="44.3702" gradientUnits="userSpaceOnUse">
<stop stop-color="#B3E0F5"/>
<stop offset="1" stop-color="#97E1BC"/>
</linearGradient>
<linearGradient id="paint2_linear" x1="24.2962" y1="14.2719" x2="24.2962" y2="15.4522" gradientUnits="userSpaceOnUse">
<stop stop-color="#B3E0F5"/>
<stop offset="1" stop-color="#97E1BC"/>
</linearGradient>
<linearGradient id="paint3_linear" x1="27.7962" y1="14.2719" x2="27.7962" y2="15.4522" gradientUnits="userSpaceOnUse">
<stop stop-color="#B3E0F5"/>
<stop offset="1" stop-color="#97E1BC"/>
</linearGradient>
<linearGradient id="paint4_linear" x1="26.0469" y1="16.0424" x2="26.0469" y2="17.8129" gradientUnits="userSpaceOnUse">
<stop stop-color="#B3E0F5"/>
<stop offset="1" stop-color="#97E1BC"/>
</linearGradient>
<linearGradient id="paint5_linear" x1="12.0469" y1="11.9112" x2="12.0469" y2="19.5833" gradientUnits="userSpaceOnUse">
<stop stop-color="#B3E0F5"/>
<stop offset="1" stop-color="#97E1BC"/>
</linearGradient>
<linearGradient id="paint6_linear" x1="41.7962" y1="8.96039" x2="41.7962" y2="10.1407" gradientUnits="userSpaceOnUse">
<stop stop-color="#B3E0F5"/>
<stop offset="1" stop-color="#97E1BC"/>
</linearGradient>
<linearGradient id="paint7_linear" x1="42.9642" y1="10.1407" x2="42.9642" y2="11.3211" gradientUnits="userSpaceOnUse">
<stop stop-color="#B3E0F5"/>
<stop offset="1" stop-color="#97E1BC"/>
</linearGradient>
<linearGradient id="paint8_linear" x1="41.7962" y1="11.321" x2="41.7962" y2="12.5014" gradientUnits="userSpaceOnUse">
<stop stop-color="#B3E0F5"/>
<stop offset="1" stop-color="#97E1BC"/>
</linearGradient>
<linearGradient id="paint9_linear" x1="40.6302" y1="10.1407" x2="40.6302" y2="11.3211" gradientUnits="userSpaceOnUse">
<stop stop-color="#B3E0F5"/>
<stop offset="1" stop-color="#97E1BC"/>
</linearGradient>
<linearGradient id="paint10_linear" x1="37.7129" y1="27.2555" x2="37.7129" y2="34.9276" gradientUnits="userSpaceOnUse">
<stop stop-color="#B3E0F5"/>
<stop offset="1" stop-color="#97E1BC"/>
</linearGradient>
<linearGradient id="paint11_linear" x1="15.5462" y1="34.9276" x2="15.5462" y2="36.1079" gradientUnits="userSpaceOnUse">
<stop stop-color="#B3E0F5"/>
<stop offset="1" stop-color="#97E1BC"/>
</linearGradient>
<linearGradient id="paint12_linear" x1="16.7142" y1="36.108" x2="16.7142" y2="37.2883" gradientUnits="userSpaceOnUse">
<stop stop-color="#B3E0F5"/>
<stop offset="1" stop-color="#97E1BC"/>
</linearGradient>
<linearGradient id="paint13_linear" x1="15.5462" y1="37.2883" x2="15.5462" y2="38.4686" gradientUnits="userSpaceOnUse">
<stop stop-color="#B3E0F5"/>
<stop offset="1" stop-color="#97E1BC"/>
</linearGradient>
<linearGradient id="paint14_linear" x1="14.3802" y1="36.108" x2="14.3802" y2="37.2883" gradientUnits="userSpaceOnUse">
<stop stop-color="#B3E0F5"/>
<stop offset="1" stop-color="#97E1BC"/>
</linearGradient>
<clipPath id="clip0">
<rect x="8.54688" y="8.37024" width="35" height="36" fill="white"/>
</clipPath>
</defs>
</svg>
