<svg width="31" height="36" viewBox="0 0 31 36" fill="none" xmlns="http://www.w3.org/2000/svg">
<path d="M17.7523 0.372345C13.1414 0.372345 9.31208 1.38345 6.73313 3.71678C4.23233 6.01122 3.13823 9.51122 3.68528 14.139C2.47396 15.7723 1.02819 17.8723 0.598362 19.6223C0.559287 20.1279 0.793736 20.3612 1.14541 20.6334C1.61431 20.8668 2.12229 20.9446 2.55211 20.9446C2.51303 21.6834 2.47396 22.189 2.55211 23.3557C2.59118 23.8223 2.90378 23.9779 3.33361 24.1723V24.4835C3.33361 25.8057 3.76343 27.4001 4.15418 28.6057C4.23233 28.8779 4.46678 29.0724 4.74031 29.1112C6.85036 29.4224 8.72595 28.9946 10.7579 28.839C11.1877 30.7057 11.1095 32.339 10.7579 34.439C10.6797 34.8668 11.0705 35.3335 11.5394 35.3335H26.3488C26.8567 35.3335 27.2866 34.7112 27.0521 34.2446C25.6454 30.8612 24.9421 28.0612 24.8248 23.9779C27.4429 21.2945 30.2563 18.2612 30.2563 12.389C30.2563 6.16678 25.1765 0.372345 17.7523 0.372345ZM17.7523 1.9279C18.5728 1.9279 19.3543 2.00567 20.0968 2.16122V7.10012C19.706 7.02234 19.3153 6.98346 18.9245 6.98346C18.5338 6.98346 18.143 7.02234 17.7523 7.10012V1.9279ZM16.1502 1.96678L16.1893 7.56679C13.8838 8.61679 12.2818 10.9112 12.2818 13.5946C12.2818 17.2501 15.2515 20.2057 18.9245 20.2057C22.5976 20.2057 25.5673 17.2501 25.5673 13.5946C25.5673 10.9112 23.9652 8.61679 21.6598 7.56679V2.55011C26.0362 4.10567 28.6933 8.15011 28.6933 12.389C28.6933 17.989 26.1925 20.4001 23.4963 23.1612C23.34 23.3168 23.2618 23.5112 23.2618 23.7057C23.34 27.6335 24.0043 30.589 25.2156 33.739H12.3208C12.5944 31.6779 12.6725 29.8501 12.0864 27.7501C12.0082 27.439 11.6957 27.2057 11.3831 27.1668C9.31208 27.2057 7.47555 27.7501 5.48273 27.5557C5.17013 26.5057 4.85753 25.2612 4.85753 24.4057V23.6279C4.85753 23.3557 4.70123 23.0446 4.42771 22.9279L4.07603 22.7723C4.03696 21.7612 4.03696 21.3334 4.07603 20.1668C4.07603 19.739 3.72436 19.3501 3.29453 19.3501C2.98193 19.3501 2.66933 19.3112 2.39581 19.3112C2.90378 17.989 4.03696 16.1612 5.09198 14.7612C5.20921 14.6057 5.24828 14.4112 5.20921 14.2168C4.62308 9.74456 5.63903 6.789 7.78815 4.80566C9.66375 3.13344 12.5162 2.16122 16.1502 1.96678ZM18.9245 8.53901C21.7379 8.53901 24.0043 10.7946 24.0043 13.5946C24.0043 16.3946 21.7379 18.6501 18.9245 18.6501C16.1111 18.6501 13.8448 16.3946 13.8448 13.5946C13.8448 10.7946 16.1111 8.53901 18.9245 8.53901ZM18.9245 10.0557C16.9708 10.0557 15.4078 11.6501 15.4078 13.5557C15.4078 15.4612 17.0098 17.0557 18.9245 17.0557C20.8392 17.0557 22.4413 15.4612 22.4413 13.5557C22.4413 11.6501 20.8392 10.0557 18.9245 10.0557Z" fill="url(#paint0_linear)"/>
<defs>
<linearGradient id="paint0_linear" x1="28.4458" y1="35.3335" x2="-3.53717" y2="3.10994" gradientUnits="userSpaceOnUse">
<stop stop-color="#2DC076"/>
<stop offset="1" stop-color="#3DB6EC"/>
</linearGradient>
</defs>
</svg>
