<svg width="15" height="15" viewBox="0 0 15 15" fill="none" xmlns="http://www.w3.org/2000/svg">
<path fill-rule="evenodd" clip-rule="evenodd" d="M13.5 1.5H1.5C1.08579 1.5 0.75 1.83579 0.75 2.25V13.5C0.75 13.9142 1.08579 14.25 1.5 14.25H13.5C13.9142 14.25 14.25 13.9142 14.25 13.5V2.25C14.25 1.83579 13.9142 1.5 13.5 1.5ZM1.5 0.75C0.671573 0.75 0 1.42157 0 2.25V13.5C0 14.3284 0.671573 15 1.5 15H13.5C14.3284 15 15 14.3284 15 13.5V2.25C15 1.42157 14.3284 0.75 13.5 0.75H1.5Z" fill="#2D9CDB"/>
<path fill-rule="evenodd" clip-rule="evenodd" d="M14.25 6H0.75V13.5C0.75 13.9142 1.08579 14.25 1.5 14.25H13.5C13.9142 14.25 14.25 13.9142 14.25 13.5V6ZM0 5.25V13.5C0 14.3284 0.671573 15 1.5 15H13.5C14.3284 15 15 14.3284 15 13.5V5.25H0Z" fill="#2D9CDB"/>
<path d="M3.75 0H4.5V2.25H3.75V0Z" fill="#C4C4C4"/>
<path fill-rule="evenodd" clip-rule="evenodd" d="M4.5 0H3.75V2.25H4.5V0Z" fill="#2D9CDB"/>
<path d="M10.5 0H11.25V2.25H10.5V0Z" fill="#C4C4C4"/>
<path fill-rule="evenodd" clip-rule="evenodd" d="M11.25 0H10.5V2.25H11.25V0Z" fill="#2D9CDB"/>
<path d="M10.5 7.5H12V9H10.5V7.5Z" fill="#C4C4C4"/>
<path fill-rule="evenodd" clip-rule="evenodd" d="M10.5 7.5V9H12V7.5H10.5Z" fill="#2D9CDB"/>
<path d="M6.75 7.5H8.25V9H6.75V7.5Z" fill="#C4C4C4"/>
<path fill-rule="evenodd" clip-rule="evenodd" d="M6.75 7.5V9H8.25V7.5H6.75Z" fill="#2D9CDB"/>
<path d="M3 7.5H4.5V9H3V7.5Z" fill="#C4C4C4"/>
<path fill-rule="evenodd" clip-rule="evenodd" d="M3 7.5V9H4.5V7.5H3Z" fill="#2D9CDB"/>
<path d="M10.5 11.25H12V12.75H10.5V11.25Z" fill="#C4C4C4"/>
<path fill-rule="evenodd" clip-rule="evenodd" d="M10.5 11.25V12.75H12V11.25H10.5Z" fill="#2D9CDB"/>
<path d="M6.75 11.25H8.25V12.75H6.75V11.25Z" fill="#C4C4C4"/>
<path fill-rule="evenodd" clip-rule="evenodd" d="M6.75 11.25V12.75H8.25V11.25H6.75Z" fill="#2D9CDB"/>
<path d="M3 11.25H4.5V12.75H3V11.25Z" fill="#C4C4C4"/>
<path fill-rule="evenodd" clip-rule="evenodd" d="M3 11.25V12.75H4.5V11.25H3Z" fill="#2D9CDB"/>
</svg>
