<svg width="15" height="13" viewBox="0 0 15 13" fill="none" xmlns="http://www.w3.org/2000/svg">
<path d="M12.7883 6.68218L8.57335 10.8912H2.34147L0.650645 9.21485C0.288327 8.85304 0.288327 8.26208 0.650645 7.88821L2.20862 6.33243L4.93809 9.05806C5.13132 9.25103 5.43325 9.25103 5.62649 9.05806C5.81973 8.8651 5.81973 8.56359 5.62649 8.37063L2.9091 5.63294L7.32939 1.21887C7.69171 0.857058 8.28349 0.857058 8.65789 1.21887L12.8004 5.35555C13.1506 5.72942 13.1506 6.32037 12.7883 6.68218Z" fill="#C0C7D6"/>
<path d="M14.999 12.2661C14.999 12.6399 14.697 12.9535 14.3106 12.9535H0.687376C0.494139 12.9535 0.31298 12.8691 0.180129 12.7364C-0.218421 12.3023 0.0955884 11.5907 0.687376 11.5907H14.3226C14.697 11.5907 14.999 11.8922 14.999 12.2661Z" fill="#C0C7D6"/>
</svg>
