<svg width="16" height="13" viewBox="0 0 16 13" fill="none" xmlns="http://www.w3.org/2000/svg">
<path d="M13.1282 6.39568L8.91319 10.6047H2.68131L0.990489 8.92835C0.62817 8.56654 0.62817 7.97558 0.990489 7.60171L2.54846 6.04593L5.27793 8.77156C5.47117 8.96453 5.7731 8.96453 5.96633 8.77156C6.15957 8.5786 6.15957 8.27709 5.96633 8.08413L3.24894 5.34644L7.66923 0.932368C8.03155 0.570558 8.62334 0.570558 8.99774 0.932368L13.1402 5.06905C13.4905 5.44292 13.4905 6.03387 13.1282 6.39568Z" fill="white"/>
<path d="M15.3388 11.9796C15.3388 12.3534 15.0369 12.667 14.6504 12.667H1.02722C0.833983 12.667 0.652824 12.5826 0.519973 12.4499C0.121423 12.0158 0.435432 11.3042 1.02722 11.3042H14.6625C15.0369 11.3042 15.3388 11.6057 15.3388 11.9796Z" fill="white"/>
</svg>
