<svg width="20" height="20" viewBox="0 0 20 20" fill="none" xmlns="http://www.w3.org/2000/svg">
<circle cx="9.80469" cy="9.75684" r="9" stroke="#FF0000"/>
<path d="M10.2441 11.8486H9.26562L9.18945 5.72559H10.3262L10.2441 11.8486ZM9.14844 13.7119C9.14844 13.5361 9.20117 13.3896 9.30664 13.2725C9.41602 13.1514 9.57617 13.0908 9.78711 13.0908C9.99805 13.0908 10.1582 13.1514 10.2676 13.2725C10.377 13.3896 10.4316 13.5361 10.4316 13.7119C10.4316 13.8877 10.377 14.0342 10.2676 14.1514C10.1582 14.2646 9.99805 14.3213 9.78711 14.3213C9.57617 14.3213 9.41602 14.2646 9.30664 14.1514C9.20117 14.0342 9.14844 13.8877 9.14844 13.7119Z" fill="#FF0000"/>
</svg>
