<svg width="10" height="16" viewBox="0 0 10 16" fill="none" xmlns="http://www.w3.org/2000/svg">
<path d="M9.85687 9.42861C9.85687 8.84574 9.5014 8.29021 8.84989 7.84462C9.13547 7.18279 9.28544 6.45149 9.28544 5.71432C9.28544 3.03603 7.36287 0.857178 4.99972 0.857178C2.63658 0.857178 0.714007 3.03603 0.714007 5.71432C0.714007 6.45149 0.863979 7.18279 1.14955 7.84462C0.498047 8.29021 0.142578 8.84574 0.142578 9.42861C0.142578 9.9084 0.379098 10.3642 0.826939 10.7609C0.538836 11.1358 0.365513 11.6033 0.365513 12.1116V14.8572C0.365513 15.0151 0.493443 15.1429 0.651228 15.1429H9.34822C9.506 15.1429 9.63393 15.0151 9.63393 14.8572V12.1116C9.63393 11.6033 9.46061 11.1358 9.17251 10.7609C9.62035 10.3642 9.85687 9.9084 9.85687 9.42861ZM9.0625 14.5715H7.96136V12.5157C7.96136 12.3577 7.83343 12.2299 7.67564 12.2299C7.51786 12.2299 7.38993 12.3577 7.38993 12.5157V14.5715H2.60952V12.5157C2.60952 12.3577 2.48159 12.2299 2.3238 12.2299C2.16602 12.2299 2.03809 12.3577 2.03809 12.5157V14.5715H0.936942V12.1116C0.936942 11.2009 1.67787 10.4599 2.58873 10.4599H2.61886C2.73751 10.4599 2.85214 10.4428 2.96432 10.4184C3.45013 11.0527 4.1942 11.4286 4.99972 11.4286C5.80525 11.4286 6.54932 11.0527 7.03512 10.4184C7.14731 10.4428 7.26193 10.4599 7.38058 10.4599H7.41072C8.32157 10.4599 9.0625 11.2009 9.0625 12.1116V14.5715ZM5.00265 8.55054H4.95745C3.86705 8.55054 2.98005 7.60523 2.98005 6.44339V4.94339C2.98005 4.46739 3.13044 4.0112 3.40695 3.63954C3.96275 3.80361 4.57422 3.6853 4.99847 3.36722C5.29771 3.75673 5.80329 4.00004 6.363 4.00004C6.49484 4.00004 6.62458 3.98664 6.75098 3.96041C6.90137 4.26259 6.98005 4.59853 6.98005 4.94339V6.44339C6.98005 7.60523 6.09305 8.55054 5.00265 8.55054ZM4.19183 9.2319L4.21931 9.12197H4.95745H5.00265H5.78014L5.80762 9.23162C5.9088 9.63663 6.15922 9.96879 6.48825 10.1866C6.11149 10.6097 5.57562 10.8572 4.99972 10.8572C4.42385 10.8572 3.88799 10.6097 3.51121 10.1866C3.84023 9.9688 4.09065 9.63674 4.19183 9.2319ZM8.76865 10.3552C8.39256 10.0638 7.92223 9.88843 7.41072 9.88843H7.38058C6.89788 9.88843 6.47908 9.56142 6.36203 9.09295L6.28042 8.76678C6.27975 8.76411 6.27792 8.76207 6.27719 8.75943C6.96274 8.3411 7.44743 7.59849 7.53615 6.73153C7.54815 6.73307 7.55874 6.7386 7.57115 6.7386C8.09752 6.7386 8.52581 6.3103 8.52581 5.78408C8.52581 5.25757 8.09752 4.82928 7.57115 4.82928C7.56151 4.82928 7.55336 4.83383 7.54397 4.83475C7.52522 4.34987 7.38754 3.88102 7.13268 3.47381C7.06153 3.36025 6.92132 3.3117 6.79548 3.35578C6.65862 3.40405 6.51312 3.42861 6.363 3.42861C5.89105 3.42861 5.46792 3.17275 5.33385 2.8064C5.29813 2.70874 5.21206 2.63815 5.10924 2.62224C5.006 2.6069 4.90318 2.64791 4.83943 2.72995C4.55009 3.10522 3.94476 3.26008 3.42439 3.03993C3.31152 2.99222 3.18136 3.02208 3.09989 3.11276C2.66617 3.59902 2.42393 4.22796 2.41108 4.88872C2.38316 4.87962 2.35475 4.87113 2.3238 4.87113C1.79729 4.87113 1.369 5.29942 1.369 5.82593C1.369 6.35216 1.79729 6.78045 2.3238 6.78045C2.36077 6.78045 2.3956 6.77218 2.42801 6.75942C2.52583 7.62824 3.02 8.37045 3.71563 8.78036L3.63742 9.09323C3.52037 9.56142 3.10156 9.88843 2.61886 9.88843H2.58873C2.07722 9.88843 1.60688 10.0638 1.2308 10.3552C0.966379 10.1275 0.714007 9.8114 0.714007 9.42861C0.714007 8.99418 1.04953 8.55695 1.65876 8.19786C1.78753 8.12197 1.83608 7.95958 1.76995 7.82537C1.45299 7.18223 1.28544 6.45232 1.28544 5.71432C1.28544 3.35104 2.95159 1.42861 4.99972 1.42861C7.04785 1.42861 8.71401 3.35104 8.71401 5.71432C8.71401 6.45232 8.54646 7.18223 8.2295 7.82537C8.16337 7.95958 8.21192 8.12197 8.34068 8.19786C8.94992 8.55695 9.28544 8.99418 9.28544 9.42861C9.28544 9.8114 9.03307 10.1275 8.76865 10.3552ZM7.57115 5.4007C7.78251 5.4007 7.95438 5.57258 7.95438 5.78408C7.95438 5.99529 7.78251 6.16717 7.57115 6.16717C7.56418 6.16717 7.55833 6.17064 7.55148 6.17113V5.39673C7.55833 5.39722 7.56418 5.4007 7.57115 5.4007ZM2.3238 6.20902C2.11244 6.20902 1.94043 6.03714 1.94043 5.82593C1.94043 5.61443 2.11244 5.44256 2.3238 5.44256C2.35388 5.44256 2.38138 5.43405 2.40862 5.42543V6.22613C2.38138 6.21751 2.35388 6.20902 2.3238 6.20902Z" fill="#0099DE"/>
</svg>
