<?xml version="1.0" encoding="utf-8"?>
<!-- Generator: Adobe Illustrator 22.1.0, SVG Export Plug-In . SVG Version: 6.00 Build 0)  -->
<svg version="1.1" id="Слой_1" xmlns="http://www.w3.org/2000/svg" xmlns:xlink="http://www.w3.org/1999/xlink" x="0px" y="0px"
	 viewBox="0 0 11.5 14.1" style="enable-background:new 0 0 11.5 14.1;" xml:space="preserve">
<style type="text/css">
	.st0{fill:none;stroke:#C0C7D6;stroke-linecap:round;stroke-linejoin:round;}
	.st1{fill:none;stroke:#C0C7D6;}
</style>
<path class="st0" d="M5.8,13.1l-0.3,0.4c0.2,0.1,0.4,0.1,0.6,0L5.8,13.1z M5.8,13.1c0.3,0.4,0.3,0.4,0.3,0.4l0,0l0,0l0,0l0,0
	c0,0,0,0,0,0c0,0,0.1-0.1,0.2-0.1c0.1-0.1,0.3-0.2,0.6-0.4c0.5-0.4,1.1-0.9,1.7-1.6C9.7,10,11,8,11,5.8c0-2.9-2.3-5.2-5.2-5.2
	c-2.9,0-5.2,2.3-5.2,5.2c0,2.1,1.3,4,2.5,5.4c0.6,0.7,1.2,1.3,1.7,1.7c0.2,0.2,0.4,0.4,0.5,0.5c0.1,0.1,0.1,0.1,0.2,0.1l0,0l0,0l0,0
	l0,0l0,0C5.5,13.5,5.5,13.5,5.8,13.1z"/>
<circle class="st1" cx="5.8" cy="5.5" r="2.1"/>
</svg>
