<svg width="31" height="31" viewBox="0 0 31 31" fill="none" xmlns="http://www.w3.org/2000/svg">
<path d="M29.3613 17.2672V7.11719C29.3613 4.61719 27.3613 2.61719 24.8613 2.61719H23.8613C21.3613 2.61719 19.3613 4.61719 19.3613 7.11719V15.1672C19.3613 15.1172 19.3113 15.0672 19.3113 15.0172C19.3113 15.0172 18.9613 14.5172 18.8113 14.3672C18.6613 14.2172 18.1113 13.7672 18.1113 13.7672C17.6613 13.4672 17.1113 13.3172 16.5613 13.3172H15.3113C14.0613 13.3172 13.0113 14.0172 12.5613 15.0672H11.8613V13.8172C13.6613 13.1672 14.8613 11.4672 14.8613 9.56719V2.61719C14.8613 1.51719 13.9613 0.617188 12.8613 0.617188H12.3613C12.2113 0.617188 12.1113 0.667188 12.0113 0.767188L11.8613 0.917188L11.7113 0.767188C11.6113 0.667188 11.5113 0.617188 11.3613 0.617188H9.36133C6.61133 0.617188 4.36133 2.86719 4.36133 5.61719V7.51719C3.76133 8.06719 3.71133 9.01719 4.26133 9.61719C4.56133 9.91719 4.96133 10.1172 5.36133 10.1172H5.91133C6.06133 11.4172 6.76133 12.6172 7.86133 13.3672V15.1172H4.36133C2.41133 15.1172 0.861328 16.6672 0.861328 18.6172V22.1172C0.861328 22.3672 1.11133 22.6172 1.36133 22.6172V26.7172C1.36133 28.8672 3.11133 30.6172 5.26133 30.6172H27.7113C28.6113 30.6172 29.4113 30.1672 29.9113 29.4672C29.9113 29.4672 29.9113 29.4172 29.9613 29.4172C30.2113 29.0172 30.3613 28.5172 30.3613 28.0172V23.6172C30.6113 23.6172 30.8613 23.3672 30.8613 23.1172V20.1172C30.8613 18.9672 30.3113 17.9172 29.3613 17.2672ZM20.3613 7.11719C20.3613 5.16719 21.9113 3.61719 23.8613 3.61719H24.8613C26.8113 3.61719 28.3613 5.16719 28.3613 7.11719V8.71719C28.2113 8.66719 28.0113 8.61719 27.8613 8.61719H26.9113C26.0113 8.36719 25.3613 7.56719 25.3613 6.61719C25.3613 6.36719 25.1113 6.11719 24.8613 6.11719C23.2113 6.11719 21.6113 6.71719 20.3613 7.81719V7.11719ZM27.8613 10.6172H27.3613V9.61719H27.8613C28.1113 9.61719 28.3613 9.86719 28.3613 10.1172C28.3613 10.3672 28.1113 10.6172 27.8613 10.6172ZM28.3613 11.5172V16.7672C28.0113 16.6672 27.7113 16.6172 27.3613 16.6172H25.8613V14.9672C26.8113 14.3172 27.3613 13.2172 27.3613 12.1172V11.6172H27.8613C28.0113 11.6172 28.2113 11.5672 28.3613 11.5172ZM20.3613 9.26719C21.3613 8.01719 22.8113 7.21719 24.4113 7.11719C24.6113 8.21719 25.3613 9.06719 26.3613 9.46719V12.1172C26.3613 13.5172 25.2613 14.6172 23.8613 14.6172H22.8613C21.4613 14.6172 20.3613 13.5172 20.3613 12.1172V9.26719ZM24.8613 15.4672V16.9172L23.1613 18.9172L22.8613 17.0672V15.6172H23.8613C24.2113 15.6172 24.5113 15.5672 24.8613 15.4672ZM20.3613 14.5672C20.7613 14.9672 21.3113 15.3172 21.8613 15.4672V16.6672C21.3113 16.7672 20.7613 17.0172 20.3613 17.3672V14.5672ZM13.4613 16.4172C13.4613 16.3172 13.4613 16.2172 13.4613 16.1672C13.5113 15.8172 13.6613 15.5172 13.8613 15.2172C14.2113 14.8172 14.7113 14.5672 15.2613 14.5672H16.5113C17.4613 14.5672 18.2613 15.3172 18.3613 16.2672C18.3613 16.3172 18.3613 16.3672 18.3613 16.4172V16.7672C17.6613 16.5172 16.9113 16.3672 16.1613 16.3172C16.1113 16.3172 16.0113 16.3672 15.9613 16.3672C15.9113 16.3672 15.9113 16.3172 15.8613 16.3172C15.3613 16.3172 14.8613 16.3672 14.3613 16.4672C14.0613 16.5172 13.7113 16.6172 13.4113 16.7672V16.4172H13.4613ZM13.4613 18.1172L13.7613 18.0172C13.9613 17.9172 14.1613 17.8672 14.4113 17.8172C14.9113 17.6672 15.4613 17.6172 15.9613 17.6172C16.7113 17.6172 17.4613 17.7672 18.1613 18.0172L18.4613 18.1172V18.9172C18.4613 19.1672 18.4113 19.4172 18.3613 19.6172C18.0613 20.6172 17.1113 21.3672 16.0113 21.3672C15.6613 21.3672 15.3613 21.3172 15.0613 21.1672C14.6113 20.9672 14.2113 20.6172 13.9613 20.2172C13.7113 19.8172 13.5613 19.3672 13.5613 18.9172V18.1172H13.4613ZM16.8613 22.4672L16.5113 23.1172L15.9113 24.3172L15.3613 23.1172L15.0613 22.4672C15.6113 22.6172 16.2613 22.6172 16.8613 22.4672ZM9.36133 1.61719H11.1613L11.5113 1.96719C11.7113 2.16719 12.0113 2.16719 12.2113 1.96719L12.5613 1.61719H12.8613C13.4113 1.61719 13.8613 2.06719 13.8613 2.61719V4.81719L13.8113 4.71719C13.4113 4.01719 12.6613 3.61719 11.8613 3.61719H8.86133C7.81133 3.61719 6.91133 4.46719 6.86133 5.51719L5.36133 5.21719C5.61133 3.16719 7.31133 1.61719 9.36133 1.61719ZM5.86133 9.11719H5.36133C5.11133 9.11719 4.86133 8.86719 4.86133 8.61719C4.86133 8.36719 5.11133 8.11719 5.36133 8.11719H5.86133V9.11719ZM6.11133 7.11719H5.36133V6.21719L6.51133 6.46719L6.11133 7.11719ZM6.86133 9.61719V7.76719L7.76133 6.36719C7.76133 6.31719 7.81133 6.26719 7.81133 6.26719C7.81133 6.26719 7.81133 6.26719 7.81133 6.21719C7.81133 6.16719 7.81133 6.16719 7.81133 6.11719V5.61719C7.81133 5.06719 8.26133 4.61719 8.81133 4.61719H11.8113C12.2613 4.61719 12.6613 4.86719 12.9113 5.21719L13.8113 6.76719V9.61719C13.8113 11.5672 12.2613 13.1172 10.3113 13.1172C8.36133 13.1172 6.86133 11.5672 6.86133 9.61719ZM11.2613 16.1172C11.0113 16.9172 10.1613 17.3172 9.36133 17.0172C8.91133 16.8672 8.61133 16.5172 8.46133 16.1172C8.71133 16.0672 8.86133 15.8672 8.86133 15.6172V13.8672C9.36133 14.0672 9.86133 14.1172 10.3613 14.1172C10.5113 14.1172 10.7113 14.1172 10.8613 14.0672V15.6172C10.8613 15.8672 11.0113 16.0672 11.2613 16.1172ZM9.16133 29.3672L9.11133 29.6172H5.26133C3.66133 29.6172 2.36133 28.3172 2.36133 26.7172V22.6172H5.36133V25.6672C5.36133 26.4672 5.96133 27.1172 6.76133 27.1672L9.16133 27.3172V29.3672ZM9.16133 24.4672V26.3672L6.81133 26.2172C6.56133 26.2172 6.36133 25.9672 6.36133 25.7172V22.1172C6.36133 21.8672 6.11133 21.6172 5.86133 21.6172H1.86133V18.6172C1.86133 17.2172 2.96133 16.1172 4.36133 16.1172H7.41133C7.71133 17.4672 9.01133 18.3672 10.3613 18.0672C11.2613 17.8672 12.0113 17.2172 12.2613 16.3672C12.2613 16.4172 12.2613 16.4172 12.2613 16.4672V18.5172C12.2613 18.5172 12.3113 19.0172 12.3113 19.2172C12.3113 19.3672 12.3613 19.7672 12.3613 19.7672C12.5113 20.3672 12.8113 20.9172 13.2113 21.3672H12.2613C10.5613 21.3672 9.16133 22.7672 9.16133 24.4672ZM11.6113 29.3672H10.3613V25.6672H11.6113V29.3672ZM21.5113 29.3672H20.2613V25.6672H21.5113V29.3672ZM19.6613 24.4672C19.3113 24.4672 19.0613 24.7672 19.0613 25.0672V29.3672H12.8613V25.0672C12.8613 24.7172 12.6113 24.4672 12.2613 24.4672H10.4113C10.4113 23.4672 11.2113 22.6172 12.2613 22.6172H13.7613L14.0113 23.1172L14.9113 24.9172L15.0613 25.2172L15.4113 25.9672C15.5613 26.2672 15.9113 26.3672 16.2613 26.2672C16.3613 26.2172 16.4613 26.1172 16.5613 25.9672L16.7113 25.6172H16.5113L16.7613 25.5172L17.5113 24.0172L17.9613 23.1172L18.2113 22.6172H19.6613C20.0613 22.6172 20.4113 22.7172 20.7113 22.9672C21.2113 23.3172 21.5113 23.8672 21.5113 24.4672H19.6613ZM29.3613 27.9672C29.3613 28.2672 29.2613 28.6172 29.1113 28.8672C29.1113 28.8672 29.1113 28.8672 29.1113 28.9172C28.8113 29.3672 28.3113 29.6172 27.7613 29.6172H22.7613V28.0672L26.5113 27.6672C27.0113 27.6172 27.4113 27.1672 27.4113 26.6672V23.6172H29.4113V27.9672H29.3613ZM29.8613 22.6172H26.8613C26.6113 22.6172 26.3613 22.8672 26.3613 23.1172V26.6672L22.7113 27.0672V24.4672C22.7113 23.4172 22.1613 22.4672 21.3613 21.9172C21.3613 21.9172 21.2113 21.8172 20.9613 21.6672C20.9613 21.6672 20.9113 21.6172 20.8613 21.6172C20.8113 21.6172 20.7613 21.5672 20.7113 21.5672C20.6613 21.5672 20.5613 21.5172 20.5113 21.5172C20.0613 21.4172 19.7613 21.4172 19.6113 21.4172C19.5613 21.4172 19.5113 21.4172 19.5113 21.4172H18.7113C19.0613 21.0672 19.3113 20.6172 19.4613 20.1672C19.4613 20.1672 19.4613 19.8172 19.4613 20.1672C19.6113 19.9672 20.1613 19.2672 20.2113 19.1672C20.4613 18.8672 20.6613 18.6172 20.8113 18.4172C20.8613 18.3672 20.8613 18.3672 20.8613 18.3172L20.9113 18.2672C21.2113 17.9672 21.5613 17.7172 21.9613 17.6672L22.2113 19.1172C22.2613 19.5172 22.5613 19.8172 22.9113 19.9172C23.0113 19.9172 23.1113 19.9672 23.1613 19.9672C23.4613 19.9672 23.7113 19.8172 23.9113 19.6172L25.5613 17.6172H27.3613C28.7613 17.6172 29.8613 18.7172 29.8613 20.1172V22.6172Z" fill="#3DB6EC"/>
</svg>
