<svg width="29" height="21" viewBox="0 0 29 21" fill="none" xmlns="http://www.w3.org/2000/svg">
<path d="M28.8469 13.712C28.8469 14.5975 28.6776 15.4308 28.339 16.212C28.0265 16.9672 27.5838 17.6443 27.0109 18.2433C26.438 18.8162 25.7609 19.2719 24.9797 19.6105C24.2245 19.949 23.4041 20.1183 22.5187 20.1183C21.3989 20.1183 20.4094 19.8709 19.55 19.3761C18.7166 18.8813 18.0005 18.2433 17.4015 17.462C16.8286 16.6547 16.3859 15.7433 16.0734 14.7277C15.787 13.686 15.6437 12.6313 15.6437 11.5636C15.6437 10.3917 15.8 9.23287 16.1125 8.08704C16.425 6.9412 16.8677 5.87349 17.4406 4.88391C18.0396 3.89433 18.7687 2.99589 19.6281 2.1886C20.4875 1.38131 21.451 0.717244 22.5187 0.196411L25.9562 2.03235C25.2791 2.70943 24.6932 3.49068 24.1984 4.3761C23.7297 5.26152 23.4953 6.18599 23.4953 7.14954V7.5011C24.2505 7.63131 24.9536 7.8787 25.6047 8.24329C26.2557 8.60787 26.8156 9.0636 27.2844 9.61047C27.7791 10.1573 28.1567 10.7823 28.4172 11.4855C28.7036 12.1886 28.8469 12.9308 28.8469 13.712ZM13.6515 13.712C13.6515 14.5975 13.4823 15.4308 13.1437 16.212C12.8312 16.9672 12.3885 17.6443 11.8156 18.2433C11.2427 18.8162 10.5656 19.2719 9.78435 19.6105C9.02914 19.949 8.20883 20.1183 7.32342 20.1183C6.20362 20.1183 5.21404 19.8709 4.35467 19.3761C3.52133 18.8813 2.80519 18.2433 2.20623 17.462C1.63331 16.6547 1.1906 15.7433 0.878103 14.7277C0.591645 13.686 0.448416 12.6313 0.448416 11.5636C0.448416 10.3917 0.604666 9.23287 0.917166 8.08704C1.22967 6.9412 1.67237 5.87349 2.24529 4.88391C2.84425 3.89433 3.57342 2.99589 4.43279 2.1886C5.29217 1.38131 6.25571 0.717244 7.32342 0.196411L10.7609 2.03235C10.0838 2.70943 9.49789 3.49068 9.0031 4.3761C8.53435 5.26152 8.29998 6.18599 8.29998 7.14954V7.5011C9.05519 7.63131 9.75831 7.8787 10.4094 8.24329C11.0604 8.60787 11.6203 9.0636 12.089 9.61047C12.5838 10.1573 12.9614 10.7823 13.2219 11.4855C13.5083 12.1886 13.6515 12.9308 13.6515 13.712Z" fill="#00AA54"/>
</svg>
