<svg width="33" height="34" viewBox="0 0 33 34" fill="none" xmlns="http://www.w3.org/2000/svg">
<path fill-rule="evenodd" clip-rule="evenodd" d="M16.5389 32.2932C25.0259 32.2932 31.906 25.4131 31.906 16.9261C31.906 8.43915 25.0259 1.55908 16.5389 1.55908C8.05194 1.55908 1.17188 8.43915 1.17188 16.9261C1.17188 25.4131 8.05194 32.2932 16.5389 32.2932ZM16.5389 33.2932C25.5782 33.2932 32.906 25.9654 32.906 16.9261C32.906 7.88686 25.5782 0.559082 16.5389 0.559082C7.49966 0.559082 0.171875 7.88686 0.171875 16.9261C0.171875 25.9654 7.49966 33.2932 16.5389 33.2932Z" fill="#EB5757"/>
<path d="M17.5585 19.8795C17.5585 20.4433 17.1014 20.9004 16.5376 20.9004C15.9738 20.9004 15.5167 20.4433 15.5167 19.8795L15.5167 9.97896C15.5167 9.41511 15.9738 8.95803 16.5376 8.95803C17.1014 8.95803 17.5585 9.41511 17.5585 9.97896L17.5585 19.8795Z" fill="#EB5757"/>
<path d="M15.3829 23.7396C15.3829 23.1016 15.9001 22.5844 16.5382 22.5844C17.1762 22.5844 17.6934 23.1016 17.6934 23.7396C17.6934 24.3776 17.1762 24.8948 16.5382 24.8948C15.9001 24.8948 15.3829 24.3776 15.3829 23.7396Z" fill="#EB5757"/>
</svg>
