<svg width="26" height="23" viewBox="0 0 26 23" fill="none" xmlns="http://www.w3.org/2000/svg">
<path d="M24.375 23H3.79167C3.36069 23 2.94736 22.8269 2.64262 22.5188C2.33787 22.2107 2.16667 21.7929 2.16667 21.3571V18.0714C2.16667 17.6357 2.33787 17.2178 2.64262 16.9098C2.94736 16.6017 3.36069 16.4286 3.79167 16.4286H24.375C24.806 16.4286 25.2193 16.6017 25.524 16.9098C25.8288 17.2178 26 17.6357 26 18.0714V21.3571C26 21.7929 25.8288 22.2107 25.524 22.5188C25.2193 22.8269 24.806 23 24.375 23ZM3.79167 17.5238C3.64801 17.5238 3.51023 17.5815 3.40865 17.6842C3.30707 17.7869 3.25 17.9262 3.25 18.0714V21.3571C3.25 21.5024 3.30707 21.6417 3.40865 21.7444C3.51023 21.8471 3.64801 21.9048 3.79167 21.9048H24.375C24.5187 21.9048 24.6564 21.8471 24.758 21.7444C24.8596 21.6417 24.9167 21.5024 24.9167 21.3571V18.0714C24.9167 17.9262 24.8596 17.7869 24.758 17.6842C24.6564 17.5815 24.5187 17.5238 24.375 17.5238H3.79167Z" fill="url(#paint0_linear)"/>
<path d="M22.2083 17.5238H1.625C1.19402 17.5238 0.780698 17.3507 0.475951 17.0426C0.171205 16.7345 0 16.3167 0 15.881V12.5952C0 12.1595 0.171205 11.7417 0.475951 11.4336C0.780698 11.1255 1.19402 10.9524 1.625 10.9524H22.2083C22.6393 10.9524 23.0526 11.1255 23.3574 11.4336C23.6621 11.7417 23.8333 12.1595 23.8333 12.5952V15.881C23.8333 16.3167 23.6621 16.7345 23.3574 17.0426C23.0526 17.3507 22.6393 17.5238 22.2083 17.5238ZM1.625 12.0476C1.48134 12.0476 1.34357 12.1053 1.24198 12.208C1.1404 12.3107 1.08333 12.45 1.08333 12.5952V15.881C1.08333 16.0262 1.1404 16.1655 1.24198 16.2682C1.34357 16.3709 1.48134 16.4286 1.625 16.4286H22.2083C22.352 16.4286 22.4898 16.3709 22.5914 16.2682C22.6929 16.1655 22.75 16.0262 22.75 15.881V12.5952C22.75 12.45 22.6929 12.3107 22.5914 12.208C22.4898 12.1053 22.352 12.0476 22.2083 12.0476H1.625Z" fill="url(#paint1_linear)"/>
<path d="M24.375 12.0476H3.79167C3.36069 12.0476 2.94736 11.8745 2.64262 11.5664C2.33787 11.2583 2.16667 10.8405 2.16667 10.4048V7.11905C2.16667 6.68333 2.33787 6.26547 2.64262 5.95737C2.94736 5.64928 3.36069 5.47619 3.79167 5.47619H10.8333C10.977 5.47619 11.1148 5.53389 11.2163 5.63658C11.3179 5.73928 11.375 5.87857 11.375 6.02381C11.375 6.16905 11.3179 6.30834 11.2163 6.41103C11.1148 6.51373 10.977 6.57143 10.8333 6.57143H3.79167C3.64801 6.57143 3.51023 6.62912 3.40865 6.73182C3.30707 6.83452 3.25 6.97381 3.25 7.11905V10.4048C3.25 10.55 3.30707 10.6893 3.40865 10.792C3.51023 10.8947 3.64801 10.9524 3.79167 10.9524H24.375C24.5187 10.9524 24.6564 10.8947 24.758 10.792C24.8596 10.6893 24.9167 10.55 24.9167 10.4048V7.11905C24.9167 6.97381 24.8596 6.83452 24.758 6.73182C24.6564 6.62912 24.5187 6.57143 24.375 6.57143H22.2083C22.0647 6.57143 21.9269 6.51373 21.8253 6.41103C21.7237 6.30834 21.6667 6.16905 21.6667 6.02381C21.6667 5.87857 21.7237 5.73928 21.8253 5.63658C21.9269 5.53389 22.0647 5.47619 22.2083 5.47619H24.375C24.806 5.47619 25.2193 5.64928 25.524 5.95737C25.8288 6.26547 26 6.68333 26 7.11905V10.4048C26 10.8405 25.8288 11.2583 25.524 11.5664C25.2193 11.8745 24.806 12.0476 24.375 12.0476Z" fill="url(#paint2_linear)"/>
<path d="M22.2083 6.57143H21.6667C21.523 6.57143 21.3852 6.51373 21.2836 6.41103C21.1821 6.30834 21.125 6.16905 21.125 6.02381C21.125 5.87857 21.1821 5.73928 21.2836 5.63658C21.3852 5.53389 21.523 5.47619 21.6667 5.47619L22.2083 5.47619C22.352 5.47619 22.4898 5.41849 22.5914 5.3158C22.6929 5.2131 22.75 5.07381 22.75 4.92857V1.64286C22.75 1.49762 22.6929 1.35833 22.5914 1.25563C22.4898 1.15293 22.352 1.09524 22.2083 1.09524H15.7083C15.5647 1.09524 15.4269 1.03754 15.3253 0.934844C15.2237 0.832146 15.1667 0.692857 15.1667 0.547619C15.1667 0.402381 15.2237 0.263092 15.3253 0.160394C15.4269 0.0576954 15.5647 0 15.7083 0H22.2083C22.6393 0 23.0526 0.173086 23.3574 0.481182C23.6621 0.789277 23.8333 1.20714 23.8333 1.64286V4.92857C23.8333 5.36428 23.6621 5.78215 23.3574 6.09025C23.0526 6.39834 22.6393 6.57143 22.2083 6.57143Z" fill="url(#paint3_linear)"/>
<path d="M18.9583 9.30952C18.8147 9.30949 18.6769 9.25178 18.5754 9.14907L16.25 6.79814L13.9246 9.14907C13.8489 9.22563 13.7524 9.27777 13.6473 9.29889C13.5423 9.32001 13.4334 9.30917 13.3344 9.26773C13.2354 9.22629 13.1508 9.15612 13.0913 9.06608C13.0318 8.97605 13 8.8702 13 8.76191V1.09524H1.625C1.48134 1.09524 1.34357 1.15293 1.24198 1.25563C1.1404 1.35833 1.08333 1.49762 1.08333 1.64286V4.92857C1.08333 5.07381 1.1404 5.2131 1.24198 5.3158C1.34357 5.4185 1.48134 5.47619 1.625 5.47619L3.79167 5.47619C3.93533 5.47619 4.0731 5.53389 4.17468 5.63658C4.27627 5.73928 4.33333 5.87857 4.33333 6.02381C4.33333 6.16905 4.27627 6.30834 4.17468 6.41104C4.0731 6.51373 3.93533 6.57143 3.79167 6.57143L1.625 6.57143C1.19402 6.57143 0.780698 6.39834 0.475951 6.09025C0.171205 5.78215 0 5.36428 0 4.92857V1.64286C0 1.20714 0.171205 0.789277 0.475951 0.481182C0.780698 0.173086 1.19402 0 1.625 0H13.5417C13.6853 0 13.8231 0.0576954 13.9247 0.160394C14.0263 0.263092 14.0833 0.402381 14.0833 0.547619V7.43995L15.867 5.63664C15.9686 5.53398 16.1064 5.47631 16.25 5.47631C16.3936 5.47631 16.5314 5.53398 16.633 5.63664L18.4167 7.43995V2.7381C18.4167 2.59286 18.4737 2.45357 18.5753 2.35087C18.6769 2.24817 18.8147 2.19048 18.9583 2.19048C19.102 2.19048 19.2398 2.24817 19.3414 2.35087C19.4429 2.45357 19.5 2.59286 19.5 2.7381V8.76191C19.5 8.90714 19.4429 9.04643 19.3414 9.14913C19.2398 9.25183 19.102 9.30952 18.9583 9.30952Z" fill="url(#paint4_linear)"/>
<path d="M16.25 6.57143C16.1063 6.57143 15.9686 6.51373 15.867 6.41103C15.7654 6.30834 15.7083 6.16905 15.7083 6.02381V3.83333C15.7083 3.6881 15.7654 3.54881 15.867 3.44611C15.9686 3.34341 16.1063 3.28571 16.25 3.28571C16.3937 3.28571 16.5314 3.34341 16.633 3.44611C16.7346 3.54881 16.7917 3.6881 16.7917 3.83333V6.02381C16.7917 6.16905 16.7346 6.30834 16.633 6.41103C16.5314 6.51373 16.3937 6.57143 16.25 6.57143Z" fill="url(#paint5_linear)"/>
<path d="M3.25 4.38095C3.10634 4.38095 2.96857 4.32326 2.86698 4.22056C2.7654 4.11786 2.70833 3.97857 2.70833 3.83333V2.7381C2.70833 2.59286 2.7654 2.45357 2.86698 2.35087C2.96857 2.24817 3.10634 2.19048 3.25 2.19048C3.39366 2.19048 3.53143 2.24817 3.63302 2.35087C3.7346 2.45357 3.79167 2.59286 3.79167 2.7381V3.83333C3.79167 3.97857 3.7346 4.11786 3.63302 4.22056C3.53143 4.32326 3.39366 4.38095 3.25 4.38095Z" fill="url(#paint6_linear)"/>
<path d="M5.41667 4.38095C5.27301 4.38095 5.13523 4.32326 5.03365 4.22056C4.93207 4.11786 4.875 3.97857 4.875 3.83333V2.7381C4.875 2.59286 4.93207 2.45357 5.03365 2.35087C5.13523 2.24817 5.27301 2.19048 5.41667 2.19048C5.56033 2.19048 5.6981 2.24817 5.79968 2.35087C5.90127 2.45357 5.95833 2.59286 5.95833 2.7381V3.83333C5.95833 3.97857 5.90127 4.11786 5.79968 4.22056C5.6981 4.32326 5.56033 4.38095 5.41667 4.38095Z" fill="url(#paint7_linear)"/>
<path d="M7.58333 4.38095C7.43967 4.38095 7.3019 4.32326 7.20032 4.22056C7.09874 4.11786 7.04167 3.97857 7.04167 3.83333V2.7381C7.04167 2.59286 7.09874 2.45357 7.20032 2.35087C7.3019 2.24817 7.43967 2.19048 7.58333 2.19048C7.72699 2.19048 7.86477 2.24817 7.96635 2.35087C8.06793 2.45357 8.125 2.59286 8.125 2.7381V3.83333C8.125 3.97857 8.06793 4.11786 7.96635 4.22056C7.86477 4.32326 7.72699 4.38095 7.58333 4.38095Z" fill="url(#paint8_linear)"/>
<path d="M16.25 15.3333C16.1063 15.3333 15.9686 15.2756 15.867 15.1729C15.7654 15.0702 15.7083 14.931 15.7083 14.7857V13.6905C15.7083 13.5452 15.7654 13.4059 15.867 13.3033C15.9686 13.2006 16.1063 13.1429 16.25 13.1429C16.3937 13.1429 16.5314 13.2006 16.633 13.3033C16.7346 13.4059 16.7917 13.5452 16.7917 13.6905V14.7857C16.7917 14.931 16.7346 15.0702 16.633 15.1729C16.5314 15.2756 16.3937 15.3333 16.25 15.3333Z" fill="url(#paint9_linear)"/>
<path d="M14.0833 15.3333C13.9397 15.3333 13.8019 15.2756 13.7003 15.1729C13.5987 15.0702 13.5417 14.931 13.5417 14.7857V13.6905C13.5417 13.5452 13.5987 13.4059 13.7003 13.3033C13.8019 13.2006 13.9397 13.1429 14.0833 13.1429C14.227 13.1429 14.3648 13.2006 14.4663 13.3033C14.5679 13.4059 14.625 13.5452 14.625 13.6905V14.7857C14.625 14.931 14.5679 15.0702 14.4663 15.1729C14.3648 15.2756 14.227 15.3333 14.0833 15.3333Z" fill="url(#paint10_linear)"/>
<path d="M18.4167 15.3333C18.273 15.3333 18.1352 15.2756 18.0336 15.1729C17.9321 15.0702 17.875 14.931 17.875 14.7857V13.6905C17.875 13.5452 17.9321 13.4059 18.0336 13.3033C18.1352 13.2006 18.273 13.1429 18.4167 13.1429C18.5603 13.1429 18.6981 13.2006 18.7997 13.3033C18.9013 13.4059 18.9583 13.5452 18.9583 13.6905V14.7857C18.9583 14.931 18.9013 15.0702 18.7997 15.1729C18.6981 15.2756 18.5603 15.3333 18.4167 15.3333Z" fill="url(#paint11_linear)"/>
<path d="M20.5833 15.3333C20.4397 15.3333 20.3019 15.2756 20.2003 15.1729C20.0987 15.0702 20.0417 14.931 20.0417 14.7857V13.6905C20.0417 13.5452 20.0987 13.4059 20.2003 13.3033C20.3019 13.2006 20.4397 13.1429 20.5833 13.1429C20.727 13.1429 20.8648 13.2006 20.9664 13.3033C21.0679 13.4059 21.125 13.5452 21.125 13.6905V14.7857C21.125 14.931 21.0679 15.0702 20.9664 15.1729C20.8648 15.2756 20.727 15.3333 20.5833 15.3333Z" fill="url(#paint12_linear)"/>
<path d="M5.41667 20.8095C5.27301 20.8095 5.13523 20.7518 5.03365 20.6491C4.93207 20.5464 4.875 20.4071 4.875 20.2619V19.1667C4.875 19.0214 4.93207 18.8821 5.03365 18.7794C5.13523 18.6767 5.27301 18.619 5.41667 18.619C5.56033 18.619 5.6981 18.6767 5.79968 18.7794C5.90127 18.8821 5.95833 19.0214 5.95833 19.1667V20.2619C5.95833 20.4071 5.90127 20.5464 5.79968 20.6491C5.6981 20.7518 5.56033 20.8095 5.41667 20.8095Z" fill="url(#paint13_linear)"/>
<path d="M7.58333 20.8095C7.43967 20.8095 7.3019 20.7518 7.20032 20.6491C7.09874 20.5464 7.04167 20.4071 7.04167 20.2619V19.1667C7.04167 19.0214 7.09874 18.8821 7.20032 18.7794C7.3019 18.6767 7.43967 18.619 7.58333 18.619C7.72699 18.619 7.86477 18.6767 7.96635 18.7794C8.06793 18.8821 8.125 19.0214 8.125 19.1667V20.2619C8.125 20.4071 8.06793 20.5464 7.96635 20.6491C7.86477 20.7518 7.72699 20.8095 7.58333 20.8095Z" fill="url(#paint14_linear)"/>
<path d="M9.75 20.8095C9.60634 20.8095 9.46857 20.7518 9.36698 20.6491C9.2654 20.5464 9.20833 20.4071 9.20833 20.2619V19.1667C9.20833 19.0214 9.2654 18.8821 9.36698 18.7794C9.46857 18.6767 9.60634 18.619 9.75 18.619C9.89366 18.619 10.0314 18.6767 10.133 18.7794C10.2346 18.8821 10.2917 19.0214 10.2917 19.1667V20.2619C10.2917 20.4071 10.2346 20.5464 10.133 20.6491C10.0314 20.7518 9.89366 20.8095 9.75 20.8095Z" fill="url(#paint15_linear)"/>
<path d="M22.75 9.85714C22.6063 9.85714 22.4686 9.79945 22.367 9.69675C22.2654 9.59405 22.2083 9.45476 22.2083 9.30952V8.21429C22.2083 8.06905 22.2654 7.92976 22.367 7.82706C22.4686 7.72436 22.6063 7.66667 22.75 7.66667C22.8937 7.66667 23.0314 7.72436 23.133 7.82706C23.2346 7.92976 23.2917 8.06905 23.2917 8.21429V9.30952C23.2917 9.45476 23.2346 9.59405 23.133 9.69675C23.0314 9.79945 22.8937 9.85714 22.75 9.85714Z" fill="url(#paint16_linear)"/>
<path d="M10.8333 9.30952H5.41667C5.27301 9.30952 5.13523 9.25183 5.03365 9.14913C4.93207 9.04643 4.875 8.90714 4.875 8.76191C4.875 8.61667 4.93207 8.47738 5.03365 8.37468C5.13523 8.27198 5.27301 8.21429 5.41667 8.21429H10.8333C10.977 8.21429 11.1148 8.27198 11.2163 8.37468C11.3179 8.47738 11.375 8.61667 11.375 8.76191C11.375 8.90714 11.3179 9.04643 11.2163 9.14913C11.1148 9.25183 10.977 9.30952 10.8333 9.30952Z" fill="url(#paint17_linear)"/>
<path d="M11.375 14.7857H3.25C3.10634 14.7857 2.96857 14.728 2.86698 14.6253C2.7654 14.5226 2.70833 14.3833 2.70833 14.2381C2.70833 14.0929 2.7654 13.9536 2.86698 13.8509C2.96857 13.7482 3.10634 13.6905 3.25 13.6905H11.375C11.5187 13.6905 11.6564 13.7482 11.758 13.8509C11.8596 13.9536 11.9167 14.0929 11.9167 14.2381C11.9167 14.3833 11.8596 14.5226 11.758 14.6253C11.6564 14.728 11.5187 14.7857 11.375 14.7857Z" fill="url(#paint18_linear)"/>
<path d="M22.75 20.2619H12.4583C12.3147 20.2619 12.1769 20.2042 12.0753 20.1015C11.9737 19.9988 11.9167 19.8595 11.9167 19.7143C11.9167 19.569 11.9737 19.4298 12.0753 19.3271C12.1769 19.2244 12.3147 19.1667 12.4583 19.1667H22.75C22.8937 19.1667 23.0314 19.2244 23.133 19.3271C23.2346 19.4298 23.2917 19.569 23.2917 19.7143C23.2917 19.8595 23.2346 19.9988 23.133 20.1015C23.0314 20.2042 22.8937 20.2619 22.75 20.2619Z" fill="url(#paint19_linear)"/>
<defs>
<linearGradient id="paint0_linear" x1="24.413" y1="23" x2="4.2521" y2="-4.06411" gradientUnits="userSpaceOnUse">
<stop stop-color="#2DC076"/>
<stop offset="1" stop-color="#3DB6EC"/>
</linearGradient>
<linearGradient id="paint1_linear" x1="24.413" y1="23" x2="4.2521" y2="-4.06411" gradientUnits="userSpaceOnUse">
<stop stop-color="#2DC076"/>
<stop offset="1" stop-color="#3DB6EC"/>
</linearGradient>
<linearGradient id="paint2_linear" x1="24.413" y1="23" x2="4.2521" y2="-4.06411" gradientUnits="userSpaceOnUse">
<stop stop-color="#2DC076"/>
<stop offset="1" stop-color="#3DB6EC"/>
</linearGradient>
<linearGradient id="paint3_linear" x1="24.413" y1="23" x2="4.2521" y2="-4.06411" gradientUnits="userSpaceOnUse">
<stop stop-color="#2DC076"/>
<stop offset="1" stop-color="#3DB6EC"/>
</linearGradient>
<linearGradient id="paint4_linear" x1="24.413" y1="23" x2="4.2521" y2="-4.06411" gradientUnits="userSpaceOnUse">
<stop stop-color="#2DC076"/>
<stop offset="1" stop-color="#3DB6EC"/>
</linearGradient>
<linearGradient id="paint5_linear" x1="24.413" y1="23" x2="4.2521" y2="-4.06411" gradientUnits="userSpaceOnUse">
<stop stop-color="#2DC076"/>
<stop offset="1" stop-color="#3DB6EC"/>
</linearGradient>
<linearGradient id="paint6_linear" x1="24.413" y1="23" x2="4.2521" y2="-4.06411" gradientUnits="userSpaceOnUse">
<stop stop-color="#2DC076"/>
<stop offset="1" stop-color="#3DB6EC"/>
</linearGradient>
<linearGradient id="paint7_linear" x1="24.413" y1="23" x2="4.2521" y2="-4.06411" gradientUnits="userSpaceOnUse">
<stop stop-color="#2DC076"/>
<stop offset="1" stop-color="#3DB6EC"/>
</linearGradient>
<linearGradient id="paint8_linear" x1="24.413" y1="23" x2="4.2521" y2="-4.06411" gradientUnits="userSpaceOnUse">
<stop stop-color="#2DC076"/>
<stop offset="1" stop-color="#3DB6EC"/>
</linearGradient>
<linearGradient id="paint9_linear" x1="24.413" y1="23" x2="4.2521" y2="-4.06411" gradientUnits="userSpaceOnUse">
<stop stop-color="#2DC076"/>
<stop offset="1" stop-color="#3DB6EC"/>
</linearGradient>
<linearGradient id="paint10_linear" x1="24.413" y1="23" x2="4.2521" y2="-4.06411" gradientUnits="userSpaceOnUse">
<stop stop-color="#2DC076"/>
<stop offset="1" stop-color="#3DB6EC"/>
</linearGradient>
<linearGradient id="paint11_linear" x1="24.413" y1="23" x2="4.2521" y2="-4.06411" gradientUnits="userSpaceOnUse">
<stop stop-color="#2DC076"/>
<stop offset="1" stop-color="#3DB6EC"/>
</linearGradient>
<linearGradient id="paint12_linear" x1="24.413" y1="23" x2="4.2521" y2="-4.06411" gradientUnits="userSpaceOnUse">
<stop stop-color="#2DC076"/>
<stop offset="1" stop-color="#3DB6EC"/>
</linearGradient>
<linearGradient id="paint13_linear" x1="24.413" y1="23" x2="4.2521" y2="-4.06411" gradientUnits="userSpaceOnUse">
<stop stop-color="#2DC076"/>
<stop offset="1" stop-color="#3DB6EC"/>
</linearGradient>
<linearGradient id="paint14_linear" x1="24.413" y1="23" x2="4.2521" y2="-4.06411" gradientUnits="userSpaceOnUse">
<stop stop-color="#2DC076"/>
<stop offset="1" stop-color="#3DB6EC"/>
</linearGradient>
<linearGradient id="paint15_linear" x1="24.413" y1="23" x2="4.2521" y2="-4.06411" gradientUnits="userSpaceOnUse">
<stop stop-color="#2DC076"/>
<stop offset="1" stop-color="#3DB6EC"/>
</linearGradient>
<linearGradient id="paint16_linear" x1="24.413" y1="23" x2="4.2521" y2="-4.06411" gradientUnits="userSpaceOnUse">
<stop stop-color="#2DC076"/>
<stop offset="1" stop-color="#3DB6EC"/>
</linearGradient>
<linearGradient id="paint17_linear" x1="24.413" y1="23" x2="4.2521" y2="-4.06411" gradientUnits="userSpaceOnUse">
<stop stop-color="#2DC076"/>
<stop offset="1" stop-color="#3DB6EC"/>
</linearGradient>
<linearGradient id="paint18_linear" x1="24.413" y1="23" x2="4.2521" y2="-4.06411" gradientUnits="userSpaceOnUse">
<stop stop-color="#2DC076"/>
<stop offset="1" stop-color="#3DB6EC"/>
</linearGradient>
<linearGradient id="paint19_linear" x1="24.413" y1="23" x2="4.2521" y2="-4.06411" gradientUnits="userSpaceOnUse">
<stop stop-color="#2DC076"/>
<stop offset="1" stop-color="#3DB6EC"/>
</linearGradient>
</defs>
</svg>
