<svg width="217" height="61" viewBox="0 0 217 61" fill="none" xmlns="http://www.w3.org/2000/svg">
<path d="M33.7953 20.9143L29.0979 24.4L24.4004 20.9143V3.88408C24.4004 3.58531 24.4943 3.38612 24.7762 3.18694L29.0979 0L33.5135 3.28653C33.7014 3.48571 33.8893 3.6849 33.8893 3.98367V20.9143H33.7953Z" fill="#2F2F66"/>
<path d="M39.8013 27.1111L34.1748 25.4026L33.8887 19.6126L46.6677 9.64616C46.8584 9.45632 47.1445 9.45632 47.4306 9.55124L52.5804 11.1648L52.8665 16.5752C52.8665 16.8599 52.7711 17.0498 52.5804 17.2396L39.8013 27.1111Z" fill="#2F2F66"/>
<path d="M37.4711 38.2065L35.2441 32.5415L39.6013 28.4667L55.6743 32.2434C55.9648 32.3427 56.1584 32.4421 56.2552 32.7403L58.2886 38.0078L54.2219 41.7845C54.0283 41.9832 53.7378 42.0826 53.5441 41.9832L37.4711 38.2065Z" fill="#2F2F66"/>
<path d="M29.8223 41.778L32.7665 36.6L38.753 37.577L46.0153 52.6224C46.1135 52.8178 46.1135 53.1109 46.0153 53.404L43.2674 58.2889L37.7716 57.4096C37.4772 57.4096 37.2809 57.2142 37.1827 56.9211L29.8223 41.778Z" fill="#2F2F66"/>
<path d="M20.8906 37.5814L26.8772 36.6L29.8214 41.8014L22.4609 56.9149C22.3627 57.1112 22.0683 57.3075 21.872 57.4056L16.3762 58.2889L13.6283 53.3819C13.5302 53.1856 13.5302 52.8912 13.6283 52.5967L20.8906 37.5814Z" fill="#2F2F66"/>
<path d="M18.7055 28.4667L23.0445 32.5716L20.8268 38.2785L4.72459 41.9829C4.43533 42.0831 4.24249 41.9829 4.04965 41.7827L0 37.9781L2.02483 32.6717C2.12125 32.3714 2.31409 32.2713 2.60335 32.1711L18.7055 28.4667Z" fill="#2F2F66"/>
<path d="M24.3997 19.6829L24.0201 25.4186L18.4217 27.1111L5.70654 17.0501C5.51676 16.862 5.42188 16.674 5.42188 16.3919L5.80143 11.0323L11.0203 9.52784C11.305 9.43381 11.4948 9.52784 11.7794 9.62187L24.3997 19.6829Z" fill="#2F2F66"/>
<path d="M79.2967 27.8264V5.42224H84.3212V23.5956H90.1186V5.42224H95.0465V23.5956H100.844V5.42224H105.868V27.8264H79.2967Z" fill="#2F2F66"/>
<path d="M109.25 27.8264V12.73H113.792V18.884L118.913 12.73H122.778V14.7493L118.333 19.9417L123.357 25.711V27.8264H119.106L113.792 21.2879V27.8264H109.25Z" fill="#2F2F66"/>
<path d="M131.957 28.2111C130.701 28.2111 129.541 28.0187 128.575 27.538C127.609 27.1533 126.739 26.5764 126.063 25.8072C125.387 25.1341 124.807 24.2687 124.517 23.211C124.13 22.2494 123.937 21.1917 123.937 20.134C123.937 19.0763 124.13 18.0186 124.517 17.057C124.903 16.0955 125.387 15.2301 126.063 14.557C126.739 13.8839 127.609 13.307 128.575 12.8262C129.541 12.4416 130.701 12.2493 131.957 12.2493C133.213 12.2493 134.276 12.4416 135.339 12.8262C136.305 13.2108 137.175 13.7878 137.851 14.557C138.527 15.2301 139.011 16.0955 139.397 17.057C139.784 18.0186 139.977 19.0763 139.977 20.134C139.977 21.1917 139.784 22.2494 139.397 23.211C139.011 24.1725 138.527 25.0379 137.851 25.8072C137.175 26.4803 136.305 27.0572 135.339 27.538C134.373 28.0187 133.213 28.2111 131.957 28.2111ZM131.957 24.3648C133.116 24.3648 133.986 23.9802 134.566 23.1148C135.146 22.3456 135.435 21.384 135.435 20.2302C135.435 19.1725 135.146 18.2109 134.566 17.4417C133.986 16.6724 133.116 16.2878 131.957 16.2878C130.797 16.2878 129.928 16.6724 129.348 17.4417C128.768 18.2109 128.478 19.1725 128.478 20.2302C128.478 21.384 128.768 22.3456 129.348 23.1148C129.928 23.9802 130.797 24.3648 131.957 24.3648Z" fill="#2F2F66"/>
<path d="M140.943 23.9802H141.233C142.006 23.9802 142.682 23.6918 142.972 23.1148C143.359 22.5379 143.552 21.5763 143.552 20.3263L143.745 12.8262H155.63V27.9226H151.089V16.3839H147.513L147.417 20.9032C147.417 21.8648 147.32 22.8264 147.127 23.6918C146.934 24.5572 146.644 25.3264 146.257 25.9033C145.871 26.4803 145.388 26.961 144.711 27.3457C144.035 27.7303 143.262 27.9226 142.296 27.9226H140.943V23.9802Z" fill="#2F2F66"/>
<path d="M162.877 28.2111C161.234 28.2111 159.978 27.7303 159.108 26.8649C158.239 25.9033 157.852 24.8456 157.852 23.5956C157.852 22.1533 158.432 20.9994 159.495 20.2302C160.558 19.3648 162.2 18.9801 164.423 18.9801C165.196 18.9801 166.162 19.0763 167.225 19.2686V18.5955C167.225 17.8263 167.032 17.1532 166.645 16.7686C166.259 16.3839 165.582 16.0955 164.713 16.0955C164.23 16.0955 163.843 16.1916 163.457 16.2878C163.167 16.3839 162.877 16.5763 162.684 16.7686C162.49 16.9609 162.297 17.1532 162.104 17.4417H158.722V15.4224C159.108 14.7493 159.495 14.2685 159.978 13.8839C160.461 13.4993 161.041 13.1147 161.814 12.8262C162.587 12.5377 163.553 12.3454 164.809 12.3454C167.128 12.3454 168.867 12.9224 170.027 13.9801C171.186 15.0378 171.766 16.6724 171.766 18.6917V27.8264H167.611L167.321 25.9033C166.935 26.4803 166.355 27.0572 165.679 27.538C165.003 28.0187 164.036 28.2111 162.877 28.2111ZM164.326 24.7495C165.292 24.7495 166.065 24.461 166.452 23.8841C166.935 23.3071 167.128 22.8264 167.128 22.2494V21.5763C166.162 21.384 165.389 21.384 164.616 21.384C163.746 21.384 163.167 21.5763 162.78 21.8648C162.394 22.1533 162.297 22.634 162.297 23.1148C162.297 23.6918 162.49 24.0764 162.78 24.3648C163.167 24.6533 163.65 24.7495 164.326 24.7495Z" fill="#2F2F66"/>
<path d="M81.2292 53.4037H77.2676V51.2883L84.9009 30.9996H89.9254L97.5587 50.9999V53.4037H93.2106L91.4714 48.6921H82.8718L81.2292 53.4037ZM90.2152 44.5575L87.3165 36.2881L84.4178 44.5575H90.2152Z" fill="#2F2F66"/>
<path d="M99.2979 53.4037V38.3074H103.839V43.8844H109.154V38.3074H113.695V53.4037H109.154V47.5383H103.839V53.4037H99.2979Z" fill="#2F2F66"/>
<path d="M115.434 57.5384V49.7498H116.884C117.27 49.4614 117.56 48.9806 117.753 48.1152C117.946 47.346 118.14 46.2883 118.236 44.9421L118.719 38.2112H131.087V49.6537H133.31V57.4423H129.251V53.3076H119.589V57.4423H115.434V57.5384ZM121.135 49.7498H126.643V41.8651H122.391L122.101 45.519C122.005 46.3844 121.908 47.2498 121.811 47.9229C121.715 48.596 121.425 49.2691 121.135 49.7498Z" fill="#2F2F66"/>
<path d="M135.629 38.3074H139.88L140.073 40.4228C140.557 39.6535 141.233 38.9804 142.103 38.4997C142.972 38.0189 143.938 37.8266 145.098 37.8266C146.161 37.8266 147.127 38.0189 147.9 38.4997C148.77 38.8843 149.446 39.4612 150.026 40.2305C150.605 40.9036 151.089 41.769 151.378 42.7305C151.668 43.6921 151.862 44.7498 151.862 45.8075C151.862 46.9613 151.668 47.9229 151.378 48.9806C151.089 49.9422 150.605 50.8076 150.026 51.5768C149.446 52.2499 148.77 52.8268 147.9 53.3076C147.03 53.6922 146.161 53.9807 145.098 53.9807C144.035 53.9807 143.069 53.7884 142.199 53.3076C141.33 52.8268 140.653 52.2499 140.17 51.4806V61H135.629V38.3074ZM143.745 49.7498C144.905 49.7498 145.774 49.3652 146.451 48.596C147.03 47.8267 147.32 46.8652 147.32 45.8075C147.32 44.7498 147.03 43.7882 146.451 43.019C145.871 42.2497 144.905 41.8651 143.745 41.8651C142.682 41.8651 141.813 42.2497 141.136 43.019C140.46 43.7882 140.17 44.6536 140.17 45.8075C140.17 46.9613 140.46 47.8267 141.136 48.596C141.813 49.3652 142.682 49.7498 143.745 49.7498Z" fill="#2F2F66"/>
<path d="M161.524 53.7884C160.171 53.7884 159.012 53.5961 157.949 53.2114C156.886 52.8268 156.113 52.2499 155.437 51.5768C154.76 50.9037 154.277 50.0383 153.891 49.0768C153.504 48.1152 153.408 47.0575 153.408 45.9036C153.408 44.8459 153.601 43.7882 153.891 42.8267C154.277 41.8651 154.76 40.9997 155.437 40.2305C156.113 39.5574 156.983 38.9804 157.949 38.4997C158.915 38.1151 160.075 37.8266 161.331 37.8266C162.587 37.8266 163.746 38.0189 164.616 38.4035C165.582 38.7881 166.259 39.2689 166.935 39.8458C167.515 40.5189 167.998 41.192 168.288 42.0574C168.578 42.9228 168.674 43.8844 168.674 44.8459C168.674 45.3267 168.578 45.9998 168.481 46.769H157.949C158.046 47.8267 158.432 48.596 159.108 49.1729C159.688 49.7498 160.558 50.0383 161.717 50.0383C162.394 50.0383 162.973 49.9422 163.36 49.846C163.746 49.7498 164.133 49.5575 164.326 49.3652C164.519 49.1729 164.809 48.9806 164.906 48.6921H168.481V50.7114C168.094 51.2883 167.611 51.8653 167.032 52.2499C166.548 52.6345 165.775 53.0191 164.906 53.3076C163.94 53.6922 162.877 53.7884 161.524 53.7884ZM157.949 44.1728H164.23C164.23 43.4998 163.94 42.8267 163.457 42.2497C162.973 41.6728 162.2 41.3843 161.138 41.3843C160.171 41.3843 159.398 41.6728 158.915 42.1536C158.529 42.7305 158.142 43.4036 157.949 44.1728Z" fill="#2F2F66"/>
<path d="M178.337 53.7884C176.984 53.7884 175.824 53.5961 174.762 53.2114C173.699 52.8268 172.926 52.2499 172.249 51.5768C171.573 50.9037 171.09 50.0383 170.703 49.0768C170.317 48.1152 170.22 47.0575 170.22 45.9036C170.22 44.8459 170.413 43.7882 170.703 42.8267C171.09 41.8651 171.573 40.9997 172.249 40.2305C172.926 39.5574 173.795 38.9804 174.762 38.4997C175.728 38.1151 176.887 37.8266 178.143 37.8266C179.4 37.8266 180.559 38.0189 181.429 38.4035C182.395 38.7881 183.071 39.2689 183.748 39.8458C184.327 40.5189 184.811 41.192 185.1 42.0574C185.39 42.9228 185.487 43.8844 185.487 44.8459C185.487 45.3267 185.39 45.9998 185.294 46.769H174.762C174.858 47.8267 175.245 48.596 175.921 49.1729C176.501 49.7498 177.37 50.0383 178.53 50.0383C179.206 50.0383 179.786 49.9422 180.173 49.846C180.559 49.7498 180.946 49.5575 181.139 49.3652C181.332 49.1729 181.622 48.9806 181.719 48.6921H185.294V50.7114C184.907 51.2883 184.424 51.8653 183.844 52.2499C183.361 52.6345 182.588 53.0191 181.719 53.3076C180.752 53.6922 179.689 53.7884 178.337 53.7884ZM174.858 44.1728H181.139C181.139 43.4998 180.849 42.8267 180.366 42.2497C179.883 41.6728 179.11 41.3843 178.047 41.3843C177.081 41.3843 176.308 41.6728 175.824 42.1536C175.341 42.7305 174.955 43.4036 174.858 44.1728Z" fill="#2F2F66"/>
<path d="M187.902 38.2112H195.536C197.082 38.2112 198.435 38.5958 199.401 39.2689C200.367 39.942 200.947 40.9036 200.947 42.2497C200.947 43.019 200.754 43.5959 200.367 44.1728C199.981 44.7498 199.401 45.1344 198.724 45.4229C199.691 45.7113 200.367 46.0959 200.85 46.769C201.333 47.346 201.623 48.1152 201.623 48.9806C201.623 50.5191 201.14 51.673 200.077 52.346C199.014 53.1153 197.662 53.4999 196.019 53.4999H187.902V38.2112ZM192.251 43.9805H194.666C195.246 43.9805 195.632 43.8844 195.922 43.5959C196.212 43.4036 196.405 43.019 196.405 42.5382C196.405 42.0574 196.212 41.769 195.922 41.4805C195.632 41.2882 195.149 41.192 194.666 41.192H192.251V43.9805ZM192.251 50.2306H194.956C195.632 50.2306 196.116 50.1345 196.502 49.846C196.889 49.5575 197.082 49.1729 197.082 48.6921C197.082 48.2114 196.889 47.8267 196.502 47.5383C196.116 47.2498 195.632 47.1537 194.956 47.1537H192.251V50.2306Z" fill="#2F2F66"/>
<path d="M208 53.7884C206.358 53.7884 205.102 53.3076 204.232 52.4422C203.362 51.4806 202.976 50.4229 202.976 49.1729C202.976 47.7306 203.556 46.5767 204.618 45.8075C205.681 44.9421 207.324 44.5575 209.546 44.5575C210.319 44.5575 211.286 44.6536 212.348 44.8459V44.1728C212.348 43.4036 212.155 42.7305 211.769 42.3459C211.382 41.9613 210.706 41.6728 209.836 41.6728C209.353 41.6728 208.967 41.769 208.58 41.8651C208.29 41.9613 208 42.1536 207.807 42.3459C207.614 42.5382 207.421 42.7305 207.227 43.019H203.845V40.9997C204.232 40.3266 204.618 39.8458 205.102 39.4612C205.585 39.0766 206.164 38.692 206.937 38.4035C207.71 38.1151 208.677 37.9227 209.933 37.9227C212.252 37.9227 213.991 38.4997 215.151 39.5574C216.31 40.6151 216.89 42.2497 216.89 44.269V53.4037H212.832L212.542 51.4806C212.155 52.0576 211.575 52.6345 210.899 53.1153C210.126 53.5961 209.16 53.7884 208 53.7884ZM209.45 50.3268C210.416 50.3268 211.189 50.0383 211.575 49.4614C212.059 48.8844 212.252 48.4037 212.252 47.8267V47.1537C211.286 46.9613 210.513 46.9613 209.74 46.9613C208.87 46.9613 208.29 47.1537 207.904 47.4421C207.517 47.7306 207.421 48.2114 207.421 48.6921C207.421 49.2691 207.614 49.6537 207.904 49.9422C208.387 50.2306 208.87 50.3268 209.45 50.3268Z" fill="#2F2F66"/>
</svg>
