<svg width="10" height="16" viewBox="0 0 10 16" fill="none" xmlns="http://www.w3.org/2000/svg">
<path d="M7.41141 9.88837H7.38128C7.09743 9.88837 6.83763 9.77313 6.64631 9.58471L6.643 9.58005C6.60969 9.54701 6.57907 9.51197 6.55069 9.47554C6.54879 9.47307 6.54681 9.47066 6.54492 9.46817C6.52042 9.43615 6.49857 9.40254 6.47808 9.36831C6.46851 9.35199 6.45966 9.3352 6.45096 9.31828C6.4375 9.2927 6.42425 9.26703 6.41302 9.2405C6.39329 9.19288 6.3754 9.14414 6.36258 9.09289L6.28083 8.76671C6.28019 8.76412 6.27843 8.76215 6.27771 8.75958C6.96343 8.34126 7.44826 7.59859 7.53699 6.73151C7.54893 6.73302 7.55948 6.73853 7.57185 6.73853C8.09835 6.73853 8.52665 6.31024 8.52665 5.78401C8.52665 5.63558 8.48968 5.49671 8.42899 5.37128V3.64785C8.42899 2.8853 7.91281 2.23546 7.1829 2.05382C6.71833 1.31247 5.90276 0.857117 5.0233 0.857117H4.97754C4.09807 0.857117 3.28251 1.31247 2.81794 2.05382C2.08803 2.23546 1.57185 2.8853 1.57185 3.64785V5.24544C1.44711 5.40682 1.36984 5.60658 1.36984 5.82587C1.36984 6.35209 1.79813 6.78039 2.32436 6.78039C2.36143 6.78039 2.39634 6.77214 2.42883 6.75932C2.52659 7.62822 3.02075 8.37046 3.71638 8.78037L3.63797 9.09317C3.63653 9.09897 3.63396 9.10445 3.63241 9.11024C3.62045 9.15481 3.60545 9.19788 3.5882 9.23965C3.57659 9.26719 3.56285 9.29387 3.54881 9.32041C3.54054 9.33636 3.53221 9.35223 3.52318 9.36767C3.50244 9.40235 3.48031 9.43637 3.45548 9.46881C3.45393 9.47087 3.45229 9.47284 3.45074 9.47488C3.42222 9.51155 3.39136 9.5468 3.35784 9.58005C3.35639 9.58148 3.35582 9.58342 3.35441 9.58488C3.16309 9.77318 2.90336 9.88837 2.61956 9.88837H2.58943C1.36342 9.88837 0.366211 10.8856 0.366211 12.1116V14.8571C0.366211 15.015 0.494001 15.1428 0.651925 15.1428H9.34891C9.50684 15.1428 9.63463 15.015 9.63463 14.8571V12.1116C9.63463 10.8856 8.63742 9.88837 7.41141 9.88837ZM5.78083 9.1219L5.80818 9.23156C5.80952 9.23695 5.8124 9.24185 5.81381 9.24722C5.83824 9.34086 5.87101 9.43025 5.9103 9.51579C5.91704 9.53026 5.9259 9.54359 5.93311 9.55787C5.97266 9.63765 6.01789 9.71314 6.06918 9.78434C6.07181 9.78795 6.07338 9.79214 6.07603 9.79573C5.80622 10.1057 5.41727 10.2857 5.00042 10.2857C4.58357 10.2857 4.19462 10.1057 3.9248 9.79573C3.92735 9.7923 3.92885 9.78827 3.93136 9.78482C3.98326 9.71283 4.02909 9.6365 4.06897 9.55574C4.07565 9.54244 4.08393 9.53006 4.09023 9.51657C4.13192 9.42593 4.16745 9.33153 4.19238 9.23184L4.22001 9.1219H5.78083ZM7.57185 6.16711C7.56492 6.16711 7.55912 6.17056 7.55232 6.17105V5.3967C7.55912 5.39719 7.56492 5.40064 7.57185 5.40064C7.78334 5.40064 7.95522 5.57252 7.95522 5.78401C7.95522 5.99523 7.78334 6.16711 7.57185 6.16711ZM1.94127 5.82587C1.94127 5.77838 1.95251 5.73391 1.96835 5.69192C2.04773 5.65854 2.10421 5.58865 2.12793 5.5047C2.18626 5.46876 2.25098 5.4425 2.32436 5.4425C2.35454 5.4425 2.38215 5.434 2.40946 5.42534V6.2261C2.38215 6.21743 2.35454 6.20896 2.32436 6.20896C2.11314 6.20896 1.94127 6.03708 1.94127 5.82587ZM2.41152 4.88863C2.38363 4.87956 2.35528 4.87107 2.32436 4.87107C2.26235 4.87107 2.20203 4.87803 2.14328 4.88938V3.64785C2.14328 3.12023 2.52274 2.67548 3.04562 2.5901C3.13184 2.57587 3.20689 2.52313 3.2493 2.44668C3.59835 1.81861 4.26074 1.42855 4.97754 1.42855H5.0233C5.7401 1.42855 6.40248 1.81861 6.75153 2.44668C6.79395 2.52313 6.869 2.57587 6.95522 2.5901C7.4781 2.67548 7.85756 3.12023 7.85756 3.64785V4.87773C7.76678 4.84899 7.67203 4.82921 7.57185 4.82921C7.56206 4.82921 7.55382 4.8338 7.54429 4.83476C7.52421 4.3093 7.36564 3.80731 7.07157 3.37888C6.91197 3.14646 6.66727 2.99914 6.38239 2.9637C6.08608 2.92576 5.78613 3.01895 5.56069 3.21733C5.24512 3.49467 4.73424 3.48826 4.42453 3.20449C4.20633 3.00388 3.91225 2.9065 3.61537 2.93859C3.33022 2.969 3.07352 3.11828 2.91085 3.34847C2.59312 3.79777 2.42214 4.32927 2.41152 4.88863ZM2.98089 6.44333V4.94333C2.98089 4.48267 3.11789 4.04517 3.37737 3.67827C3.44629 3.58089 3.55232 3.52006 3.6762 3.50667C3.69266 3.505 3.70912 3.50416 3.72559 3.50416C3.8411 3.50416 3.95299 3.54713 4.03809 3.62525C4.3012 3.86688 4.643 3.99997 5.00042 3.99997C5.34584 3.99997 5.67899 3.87442 5.93792 3.64646C6.0406 3.55634 6.17564 3.51337 6.3118 3.53067C6.43206 3.54573 6.53474 3.60656 6.60059 3.70254C6.84947 4.06498 6.98089 4.49411 6.98089 4.94333V6.44333C6.98089 7.60516 6.09389 8.55048 5.00349 8.55048H4.95801C3.86789 8.55048 2.98089 7.60516 2.98089 6.44333ZM9.0632 14.5714H7.96219V12.5156C7.96219 12.3577 7.8344 12.2299 7.67648 12.2299C7.51856 12.2299 7.39076 12.3577 7.39076 12.5156V14.5714H2.61007V12.5156C2.61007 12.3577 2.48228 12.2299 2.32436 12.2299C2.16643 12.2299 2.03864 12.3577 2.03864 12.5156V14.5714H0.93764V12.1116C0.93764 11.2009 1.67871 10.4598 2.58943 10.4598H2.61956C2.94739 10.4598 3.25312 10.3576 3.51156 10.1866C3.88825 10.6098 4.42428 10.8571 5.00042 10.8571C5.57657 10.8571 6.1126 10.6097 6.48929 10.1866C6.74772 10.3576 7.05345 10.4598 7.38128 10.4598H7.41141C8.32213 10.4598 9.0632 11.2009 9.0632 12.1116V14.5714Z" fill="#0099DE"/>
<path d="M3.99695 5.15676C3.81222 5.15676 3.66246 5.30653 3.66246 5.49125C3.66246 5.676 3.81222 5.82576 3.99695 5.82576C4.18169 5.82576 4.33144 5.676 4.33144 5.49125C4.33144 5.30653 4.18169 5.15676 3.99695 5.15676Z" fill="#0099DE"/>
<path d="M6.00391 5.82576C6.18864 5.82576 6.3384 5.676 6.3384 5.49125C6.3384 5.30653 6.18864 5.15676 6.00391 5.15676C5.81916 5.15676 5.66942 5.30653 5.66942 5.49125C5.66942 5.676 5.81916 5.82576 6.00391 5.82576Z" fill="#0099DE"/>
<path d="M5.66947 6.82923H4.33148C4.33148 7.1987 4.631 7.49823 5.00047 7.49823C5.36995 7.49823 5.66947 7.1987 5.66947 6.82923Z" fill="#0099DE"/>
</svg>
