<svg width="21" height="26" viewBox="0 0 21 26" fill="none" xmlns="http://www.w3.org/2000/svg">
<path d="M5.39208 16.7208L6.09516 18.3686C6.18304 18.62 6.47599 18.7317 6.73965 18.6759L8.52665 18.1731C8.70242 18.1173 8.90748 18.1731 9.02466 18.2848L10.4015 19.4858C10.6066 19.6534 10.9288 19.6534 11.1046 19.4858L12.4815 18.2848C12.6279 18.1731 12.8037 18.1173 12.9795 18.1731L14.7665 18.6759C15.0301 18.7597 15.3231 18.62 15.411 18.3686L16.1141 16.7208C16.1727 16.5532 16.3484 16.4415 16.5242 16.4135L18.3698 16.1342C18.6334 16.1063 18.8385 15.8549 18.8092 15.6036L18.692 13.8161C18.692 13.6485 18.7799 13.4809 18.9264 13.3692L20.4497 12.3637C20.6841 12.224 20.7427 11.9168 20.5962 11.6934L19.6881 10.1572C19.6002 9.98965 19.6002 9.82207 19.6881 9.65449L20.5962 8.11834C20.7427 7.8949 20.6548 7.58767 20.4497 7.44802L18.9264 6.44254C18.7799 6.33082 18.692 6.16324 18.692 5.99566L18.8092 4.23607C18.8385 3.98471 18.6334 3.73334 18.3698 3.70541L16.5242 3.42611C16.3484 3.39818 16.1727 3.28646 16.1141 3.11888L15.4403 1.44308C15.3524 1.19171 15.0594 1.07999 14.7958 1.13585L13.0088 1.63859C12.833 1.69445 12.628 1.63859 12.5108 1.52687L11.1339 0.32588C10.9288 0.1583 10.6066 0.1583 10.4308 0.32588L9.02466 1.52687C8.87819 1.63859 8.70242 1.69445 8.52665 1.63859L6.73965 1.13585C6.47599 1.02413 6.18304 1.16378 6.09516 1.41515L5.39208 3.06302C5.33349 3.2306 5.15772 3.34232 4.98195 3.37025L3.13636 3.64955C2.8727 3.67748 2.66764 3.92885 2.69693 4.18021L2.81411 5.9398C2.81411 6.10738 2.72623 6.27496 2.57975 6.38668L1.05641 7.39216C0.82205 7.53181 0.76346 7.83904 0.909935 8.06248L1.81808 9.59863C1.90597 9.76621 1.90597 9.93379 1.81808 10.1014L0.909935 11.6375C0.76346 11.861 0.851345 12.1682 1.05641 12.3078L2.57975 13.3412C2.72623 13.453 2.81411 13.6205 2.81411 13.7881L2.69693 15.5477C2.66764 15.7991 2.8727 16.0504 3.13636 16.0784L4.98195 16.3577C5.15772 16.4415 5.30419 16.5253 5.39208 16.7208ZM6.15375 8.06248L9.08325 7.86697L10.1965 5.26948C10.4015 4.79467 11.1339 4.79467 11.339 5.26948L12.4522 7.86697L15.3817 8.06248C15.9383 8.09041 16.1434 8.76073 15.7332 9.09589L13.4775 10.9113L14.1806 13.6205C14.3271 14.1233 13.7412 14.5422 13.2724 14.2629L10.7531 12.7547L8.26299 14.235C7.79427 14.5143 7.20837 14.0954 7.35484 13.5926L8.05793 10.8834L5.80221 9.06796C5.36278 8.76073 5.59714 8.06248 6.15375 8.06248Z" fill="#F2C94C"/>
<path d="M14.9423 19.821C14.7666 19.821 14.5908 19.793 14.4443 19.7372L13.0382 19.3182L11.9249 20.2958C11.8957 20.3237 11.8371 20.3516 11.8078 20.3796L13.5655 25.5745C13.6241 25.7421 13.8877 25.798 14.0049 25.6583L15.2939 24.0942C15.3525 24.0104 15.4696 23.9825 15.5575 24.0104L17.5496 24.569C17.7547 24.6249 17.9304 24.4573 17.8425 24.2618L16.1727 19.3461C15.8505 19.6534 15.4111 19.821 14.9423 19.821Z" fill="#F2C94C"/>
<path d="M3.98602 24.5411L5.97808 23.9825C6.06596 23.9546 6.18314 23.9825 6.24173 24.0663L7.53072 25.6304C7.6479 25.77 7.91155 25.7421 7.97014 25.5466L9.72784 20.3516C9.69855 20.3237 9.63996 20.2958 9.61066 20.2678L8.52675 19.3182L7.12059 19.7372C6.94482 19.793 6.79834 19.821 6.62257 19.821C6.15385 19.821 5.71442 19.6254 5.39218 19.3182L3.72236 24.2339C3.60518 24.4294 3.78095 24.597 3.98602 24.5411Z" fill="#F2C94C"/>
</svg>
