<svg width="12" height="17" viewBox="0 0 12 17" fill="none" xmlns="http://www.w3.org/2000/svg">
<path d="M2.67203 10.5426L3.08383 11.5726C3.13531 11.7297 3.30689 11.7995 3.46132 11.7646L4.50799 11.4504C4.61094 11.4155 4.73105 11.4504 4.79969 11.5202L5.60614 12.2708C5.72625 12.3755 5.91499 12.3755 6.01794 12.2708L6.82439 11.5202C6.91018 11.4504 7.01314 11.4155 7.11609 11.4504L8.16276 11.7646C8.31718 11.8169 8.48877 11.7297 8.54025 11.5726L8.95205 10.5426C8.98637 10.4379 9.08932 10.3681 9.19227 10.3506L10.2733 10.1761C10.4277 10.1586 10.5478 10.0015 10.5306 9.84439L10.462 8.72719C10.462 8.62246 10.5135 8.51772 10.5993 8.4479L11.4915 7.81947C11.6288 7.73219 11.6631 7.54017 11.5773 7.40052L11.0454 6.44043C10.9939 6.33569 10.9939 6.23096 11.0454 6.12622L11.5773 5.16613C11.6631 5.02648 11.6116 4.83446 11.4915 4.74718L10.5993 4.11875C10.5135 4.04893 10.462 3.94419 10.462 3.83945L10.5306 2.73971C10.5478 2.5826 10.4277 2.4255 10.2733 2.40804L9.19227 2.23348C9.08932 2.21602 8.98637 2.1462 8.95205 2.04146L8.5574 0.994087C8.50593 0.836981 8.33434 0.767156 8.17992 0.802069L7.13325 1.11628C7.03029 1.15119 6.91019 1.11628 6.84155 1.04646L6.0351 0.295838C5.91499 0.191101 5.72625 0.191101 5.6233 0.295838L4.79969 1.04646C4.71389 1.11628 4.61094 1.15119 4.50799 1.11628L3.46132 0.802069C3.30689 0.732244 3.13531 0.819525 3.08383 0.976631L2.67203 2.00655C2.63771 2.11129 2.53476 2.18111 2.43181 2.19857L1.35082 2.37313C1.19639 2.39059 1.07629 2.54769 1.09344 2.7048L1.16208 3.80454C1.16208 3.90928 1.1106 4.01401 1.02481 4.08384L0.132566 4.71226C-0.00470207 4.79954 -0.0390191 4.99156 0.0467735 5.13121L0.578688 6.09131C0.630164 6.19604 0.630164 6.30078 0.578688 6.40552L0.0467735 7.36561C-0.0390191 7.50526 0.0124565 7.69728 0.132566 7.78456L1.02481 8.43044C1.1106 8.50026 1.16208 8.605 1.16208 8.70974L1.09344 9.80948C1.07629 9.96659 1.19639 10.1237 1.35082 10.1411L2.43181 10.3157C2.53476 10.3681 2.62055 10.4204 2.67203 10.5426ZM3.11815 5.13121L4.834 5.00902L5.48603 3.38559C5.60614 3.08883 6.0351 3.08883 6.15521 3.38559L6.80723 5.00902L8.52309 5.13121C8.8491 5.14867 8.96921 5.56762 8.72899 5.77709L7.40778 6.91175L7.81959 8.605C7.90538 8.91921 7.56221 9.18106 7.28767 9.00649L5.81204 8.06386L4.35356 8.98904C4.07903 9.1636 3.73586 8.90176 3.82165 8.58755L4.23345 6.89429L2.91225 5.75964C2.65487 5.56762 2.79214 5.13121 3.11815 5.13121Z" fill="#655B3C"/>
<path d="M8.26575 12.4803C8.1628 12.4803 8.05985 12.4628 7.97406 12.4279L7.15045 12.166L6.49843 12.777C6.48127 12.7945 6.44695 12.8119 6.42979 12.8294L7.4593 16.0762C7.49362 16.181 7.64805 16.2159 7.71668 16.1286L8.47166 15.1511C8.50597 15.0987 8.57461 15.0812 8.62608 15.0987L9.79286 15.4478C9.91297 15.4827 10.0159 15.378 9.96445 15.2558L8.98641 12.1835C8.79767 12.3755 8.54029 12.4803 8.26575 12.4803Z" fill="#655B3C"/>
<path d="M1.84848 15.4304L3.01526 15.0812C3.06673 15.0638 3.13537 15.0812 3.16969 15.1336L3.92466 16.1112C3.9933 16.1984 4.14772 16.181 4.18204 16.0588L5.21155 12.8119C5.19439 12.7945 5.16008 12.777 5.14292 12.7596L4.50805 12.166L3.68444 12.4279C3.58149 12.4628 3.4957 12.4803 3.39275 12.4803C3.11821 12.4803 2.86083 12.3581 2.67209 12.166L1.69405 15.2383C1.62542 15.3605 1.72837 15.4653 1.84848 15.4304Z" fill="#655B3C"/>
</svg>
