<svg width="17" height="16" viewBox="0 0 17 16" fill="none" xmlns="http://www.w3.org/2000/svg">
<path d="M15.2444 3.33021H12.9837V0.706875C12.9837 0.486875 12.8217 0.296875 12.6003 0.296875H5.30264C5.0845 0.296875 4.91925 0.483542 4.91925 0.706875V3.33021H2.65856C1.7133 3.33021 0.953125 4.11688 0.953125 5.07021V10.5902C0.953125 11.5469 1.7133 12.3302 2.65856 12.3302H4.25823V14.8869C4.25823 15.1069 4.42018 15.2969 4.64162 15.2969H13.2646C13.4828 15.2969 13.648 15.1102 13.648 14.8869V12.3302H15.2477C16.1963 12.3302 16.9531 11.5469 16.9531 10.5902V5.07021C16.9498 4.11688 16.1896 3.33021 15.2444 3.33021ZM5.71247 1.09688H12.1905V3.33021H5.71247V1.09688ZM12.8515 14.4969H5.05145V9.36354H12.8515V14.4969ZM16.1566 10.5902C16.1566 11.1035 15.7534 11.5302 15.2444 11.5302H13.6447V8.96354C13.6447 8.74354 13.4828 8.56354 13.2613 8.56354H4.64162C4.42348 8.56354 4.25823 8.74021 4.25823 8.96354V11.5302H2.65856C2.14957 11.5302 1.74635 11.1069 1.74635 10.5902V5.07021C1.74635 4.55688 2.14957 4.13021 2.65856 4.13021H15.2411C15.7501 4.13021 16.1533 4.55688 16.1533 5.07021V10.5902H16.1566Z" fill="white"/>
<path d="M13.8168 5.46355H10.7562C10.5381 5.46355 10.3596 5.64355 10.3596 5.86355C10.3596 6.08355 10.5381 6.26355 10.7562 6.26355H13.8168C14.0349 6.26355 14.2134 6.08355 14.2134 5.86355C14.2134 5.64355 14.0382 5.46355 13.8168 5.46355Z" fill="white"/>
<path d="M6.62539 11.0302H7.97718C8.19531 11.0302 8.37379 10.8502 8.37379 10.6302C8.37379 10.4102 8.19531 10.2302 7.97718 10.2302H6.62539C6.40725 10.2302 6.22878 10.4102 6.22878 10.6302C6.22878 10.8502 6.40395 11.0302 6.62539 11.0302Z" fill="white"/>
<path d="M10.9485 11.5636H6.62539C6.40725 11.5636 6.22878 11.7436 6.22878 11.9636C6.22878 12.1836 6.40725 12.3636 6.62539 12.3636H10.9518C11.1699 12.3636 11.3484 12.1836 11.3484 11.9636C11.3484 11.7436 11.1699 11.5636 10.9485 11.5636Z" fill="white"/>
<path d="M10.9485 12.8969H6.62539C6.40725 12.8969 6.22878 13.0769 6.22878 13.2969C6.22878 13.5169 6.40725 13.6969 6.62539 13.6969H10.9518C11.1699 13.6969 11.3484 13.5169 11.3484 13.2969C11.3484 13.0769 11.1699 12.8969 10.9485 12.8969Z" fill="white"/>
</svg>
