<svg width="21" height="21" viewBox="0 0 21 21" fill="none" xmlns="http://www.w3.org/2000/svg">
<path fill-rule="evenodd" clip-rule="evenodd" d="M10.7988 19.1521C15.8323 19.1521 19.9128 15.0717 19.9128 10.0381C19.9128 5.00464 15.8323 0.924176 10.7988 0.924176C5.76532 0.924176 1.68486 5.00464 1.68486 10.0381C1.68486 15.0717 5.76532 19.1521 10.7988 19.1521ZM10.7988 20.0381C16.3217 20.0381 20.7988 15.561 20.7988 10.0381C20.7988 4.5153 16.3217 0.038147 10.7988 0.038147C5.27598 0.038147 0.798828 4.5153 0.798828 10.0381C0.798828 15.561 5.27598 20.0381 10.7988 20.0381Z" fill="#C0C7D6"/>
<path d="M10.0295 11.985C10.0376 11.5045 10.0921 11.1249 10.1931 10.8463C10.294 10.5677 10.4999 10.2588 10.8109 9.91959L11.6043 9.10192C11.9435 8.71832 12.1131 8.30645 12.1131 7.86632C12.1131 7.44235 12.002 7.11124 11.78 6.873C11.5579 6.63073 11.2348 6.50959 10.8109 6.50959C10.399 6.50959 10.0679 6.61862 9.81754 6.83666C9.56719 7.05471 9.44202 7.34745 9.44202 7.7149H8.3215C8.32958 7.06076 8.56176 6.53382 9.01804 6.13407C9.47836 5.73028 10.076 5.52838 10.8109 5.52838C11.574 5.52838 12.1676 5.73432 12.5916 6.14618C13.0196 6.55401 13.2336 7.11528 13.2336 7.82998C13.2336 8.53661 12.9065 9.23315 12.2524 9.91959L11.5922 10.5737C11.2974 10.9008 11.15 11.3712 11.15 11.985H10.0295ZM9.98108 13.905C9.98108 13.7233 10.0356 13.5719 10.1446 13.4507C10.2577 13.3256 10.4232 13.263 10.6413 13.263C10.8593 13.263 11.0249 13.3256 11.1379 13.4507C11.251 13.5719 11.3075 13.7233 11.3075 13.905C11.3075 14.0867 11.251 14.2381 11.1379 14.3593C11.0249 14.4764 10.8593 14.5349 10.6413 14.5349C10.4232 14.5349 10.2577 14.4764 10.1446 14.3593C10.0356 14.2381 9.98108 14.0867 9.98108 13.905Z" fill="#C0C7D6"/>
</svg>
