<svg width="29" height="20" viewBox="0 0 29 20" fill="none" xmlns="http://www.w3.org/2000/svg">
<path d="M28.7817 13.5156C28.7817 14.401 28.6125 15.2344 28.2739 16.0156C27.9614 16.7708 27.5187 17.4479 26.9458 18.0469C26.3729 18.6198 25.6958 19.0755 24.9146 19.4141C24.1593 19.7526 23.339 19.9219 22.4536 19.9219C21.3338 19.9219 20.3442 19.6745 19.4849 19.1797C18.6515 18.6849 17.9354 18.0469 17.3364 17.2656C16.7635 16.4583 16.3208 15.5469 16.0083 14.5312C15.7218 13.4896 15.5786 12.4349 15.5786 11.3672C15.5786 10.1953 15.7349 9.03646 16.0474 7.89062C16.3599 6.74479 16.8026 5.67708 17.3755 4.6875C17.9744 3.69792 18.7036 2.79948 19.563 1.99219C20.4224 1.1849 21.3859 0.520833 22.4536 0L25.8911 1.83594C25.214 2.51302 24.6281 3.29427 24.1333 4.17969C23.6646 5.0651 23.4302 5.98958 23.4302 6.95312V7.30469C24.1854 7.4349 24.8885 7.68229 25.5396 8.04688C26.1906 8.41146 26.7505 8.86719 27.2192 9.41406C27.714 9.96094 28.0916 10.5859 28.3521 11.2891C28.6385 11.9922 28.7817 12.7344 28.7817 13.5156ZM13.5864 13.5156C13.5864 14.401 13.4172 15.2344 13.0786 16.0156C12.7661 16.7708 12.3234 17.4479 11.7505 18.0469C11.1776 18.6198 10.5005 19.0755 9.71924 19.4141C8.96403 19.7526 8.14372 19.9219 7.2583 19.9219C6.13851 19.9219 5.14893 19.6745 4.28955 19.1797C3.45622 18.6849 2.74007 18.0469 2.14111 17.2656C1.5682 16.4583 1.12549 15.5469 0.812988 14.5312C0.52653 13.4896 0.383301 12.4349 0.383301 11.3672C0.383301 10.1953 0.539551 9.03646 0.852051 7.89062C1.16455 6.74479 1.60726 5.67708 2.18018 4.6875C2.77913 3.69792 3.5083 2.79948 4.36768 1.99219C5.22705 1.1849 6.19059 0.520833 7.2583 0L10.6958 1.83594C10.0187 2.51302 9.43278 3.29427 8.93799 4.17969C8.46924 5.0651 8.23486 5.98958 8.23486 6.95312V7.30469C8.99007 7.4349 9.6932 7.68229 10.3442 8.04688C10.9953 8.41146 11.5552 8.86719 12.0239 9.41406C12.5187 9.96094 12.8963 10.5859 13.1567 11.2891C13.4432 11.9922 13.5864 12.7344 13.5864 13.5156Z" fill="#C0C7D6"/>
</svg>
