<svg width="29" height="20" viewBox="0 0 29 20" fill="none" xmlns="http://www.w3.org/2000/svg">
<path d="M0.381835 6.48438C0.381835 5.59896 0.551106 4.76563 0.889647 3.98438C1.20215 3.22917 1.64486 2.55209 2.21777 1.95313C2.79069 1.38021 3.46777 0.924481 4.24902 0.58594C5.00423 0.247399 5.82454 0.0781275 6.70996 0.0781274C7.82975 0.0781273 8.81933 0.325524 9.67871 0.820315C10.512 1.31511 11.2282 1.95313 11.8271 2.73438C12.4001 3.54167 12.8428 4.45313 13.1553 5.46875C13.4417 6.51042 13.585 7.56511 13.585 8.63281C13.585 9.80469 13.4287 10.9635 13.1162 12.1094C12.8037 13.2552 12.361 14.3229 11.7881 15.3125C11.1891 16.3021 10.46 17.2005 9.60059 18.0078C8.74121 18.8151 7.77767 19.4792 6.70996 20L3.27246 18.1641C3.94954 17.487 4.53548 16.7057 5.03027 15.8203C5.49902 14.9349 5.7334 14.0104 5.7334 13.0469L5.7334 12.6953C4.97819 12.5651 4.27506 12.3177 3.62402 11.9531C2.97298 11.5885 2.41309 11.1328 1.94434 10.5859C1.44954 10.0391 1.07194 9.41407 0.811523 8.71094C0.525064 8.00782 0.381835 7.26563 0.381835 6.48438ZM15.5771 6.48438C15.5771 5.59896 15.7464 4.76563 16.085 3.98438C16.3975 3.22917 16.8402 2.55209 17.4131 1.95313C17.986 1.38021 18.6631 0.92448 19.4443 0.585939C20.1995 0.247397 21.0199 0.0781259 21.9053 0.0781258C23.0251 0.0781256 24.0146 0.325522 24.874 0.820313C25.7074 1.3151 26.4235 1.95313 27.0225 2.73438C27.5954 3.54167 28.0381 4.45313 28.3506 5.46875C28.637 6.51042 28.7803 7.5651 28.7803 8.63281C28.7803 9.80469 28.624 10.9635 28.3115 12.1094C27.999 13.2552 27.5563 14.3229 26.9834 15.3125C26.3844 16.3021 25.6553 17.2005 24.7959 18.0078C23.9365 18.8151 22.973 19.4792 21.9053 20L18.4678 18.1641C19.1449 17.487 19.7308 16.7057 20.2256 15.8203C20.6943 14.9349 20.9287 14.0104 20.9287 13.0469L20.9287 12.6953C20.1735 12.5651 19.4704 12.3177 18.8193 11.9531C18.1683 11.5885 17.6084 11.1328 17.1396 10.5859C16.6449 10.0391 16.2673 9.41406 16.0068 8.71094C15.7204 8.00781 15.5771 7.26563 15.5771 6.48438Z" fill="#C0C7D6"/>
</svg>
