<svg width="23" height="29" viewBox="0 0 23 29" fill="none" xmlns="http://www.w3.org/2000/svg">
<path d="M16.1 0.0113432C15.7581 0.0431614 15.5095 0.361328 15.5405 0.711327C15.5405 0.870418 15.6338 0.997707 15.727 1.12498L16.1932 1.60225L15.6959 2.07952C14.5149 0.997707 12.9919 0.424976 11.5 0.424976C9.88378 0.424976 8.26757 1.06134 7.02432 2.33407C5.65676 3.73407 5.03514 5.57951 5.19054 7.39314C5.22162 7.74314 5.53243 7.9977 5.87432 7.96589C6.21622 7.93407 6.46486 7.61588 6.43378 7.26588C6.34054 5.80225 6.80676 4.3068 7.92568 3.19316C8.92027 2.17498 10.2257 1.66587 11.5311 1.66587C12.8365 1.66587 14.1419 2.17498 15.1365 3.19316C16.2243 4.3068 16.7216 5.80225 16.6284 7.26588C16.5973 7.61588 16.8459 7.93407 17.1878 7.96589C17.5297 7.9977 17.8405 7.74314 17.8716 7.39314C17.9959 5.86587 17.5608 4.27497 16.5973 3.00224L17.1257 2.46133L17.6541 3.00224C17.9027 3.25679 18.2757 3.25679 18.5243 3.00224C18.773 2.74769 18.773 2.36588 18.5243 2.11133C18.5243 2.11133 18.5243 2.11134 18.4932 2.07952L16.6284 0.170434C16.473 0.0431614 16.2865 -0.020475 16.1 0.0113432ZM14.2351 3.79769C14.0797 3.79769 13.9243 3.86134 13.8 3.98861L12.1527 5.67497C11.5311 5.42043 10.8162 5.54771 10.3189 6.0568C9.66622 6.72498 9.66622 7.80679 10.3189 8.47497C10.9716 9.14315 12.0284 9.14315 12.6811 8.47497C13.1784 7.96588 13.3027 7.20223 13.0541 6.59769L14.7014 4.91133C14.95 4.65678 14.95 4.27497 14.7014 4.02042C14.577 3.86133 14.4216 3.79769 14.2351 3.79769ZM11.5 6.82042C11.5932 6.82042 11.7176 6.85225 11.8108 6.9477C11.9973 7.13861 11.9973 7.39314 11.8108 7.55223C11.6243 7.71133 11.3757 7.74314 11.2203 7.55223C11.0649 7.36133 11.0338 7.10679 11.2203 6.9477C11.2824 6.85225 11.4068 6.82042 11.5 6.82042ZM0.621622 8.57042C0.27973 8.57042 0 8.85678 0 9.20678V24.1613C0 24.5113 0.27973 24.7977 0.621622 24.7977C3.32568 24.7977 5.37703 24.9568 7.02432 25.4022C8.67162 25.8477 9.88378 26.5795 11.0649 27.8204C11.3135 28.075 11.6865 28.075 11.9351 27.8204C13.1162 26.5795 14.3284 25.8477 15.9757 25.4022C17.623 24.9568 19.6743 24.7977 22.3784 24.7977C22.7203 24.7977 23 24.5113 23 24.1613V9.20678C23 8.85678 22.7203 8.57042 22.3784 8.57042C19.6432 8.57042 17.4986 8.69769 15.6649 9.20678C14.0486 9.65224 12.7122 10.4159 11.5 11.5613C10.2878 10.4159 8.95135 9.65224 7.33513 9.20678C5.50135 8.72951 3.35676 8.57042 0.621622 8.57042ZM1.24324 9.87498C3.60541 9.9068 5.50135 10.0341 7.02432 10.4477C8.57838 10.8613 9.75946 11.5613 10.8784 12.7068V26.0068C9.82162 25.1477 8.67162 24.575 7.33513 24.1932C5.65676 23.7477 3.66757 23.5886 1.24324 23.5886V9.87498ZM21.7568 9.87498V23.5568C19.3324 23.5886 17.3432 23.7159 15.6649 24.1613C14.3284 24.5432 13.1784 25.1159 12.1216 25.975V12.675C13.2405 11.5295 14.4216 10.8613 15.9757 10.4159C17.4986 10.0341 19.3946 9.87498 21.7568 9.87498ZM2.64189 11.7841C2.3 11.8159 2.02027 12.1022 2.05135 12.4522C2.08243 12.8022 2.36216 13.0886 2.70405 13.0568C4.75541 13.0568 6.37162 13.3113 7.67703 13.8204C7.98784 13.9477 8.36081 13.7886 8.48514 13.4386C8.60946 13.0886 8.45405 12.7386 8.11216 12.6113C6.62027 12.0386 4.87973 11.7841 2.70405 11.7841C2.67297 11.7841 2.64189 11.7841 2.64189 11.7841ZM20.2959 11.7841C18.1203 11.7841 16.3797 12.0386 14.8878 12.6113C14.577 12.7386 14.3905 13.0886 14.5149 13.4386C14.6392 13.7568 14.9811 13.9477 15.323 13.8204C16.6284 13.3113 18.2135 13.0568 20.2959 13.0568C20.6378 13.0568 20.9176 12.7704 20.9176 12.4204C20.9486 12.0704 20.6689 11.7841 20.2959 11.7841C20.327 11.7841 20.327 11.7841 20.2959 11.7841ZM2.64189 14.7113C2.3 14.7431 2.02027 15.0295 2.05135 15.3795C2.08243 15.7295 2.36216 16.0159 2.70405 15.984C5.59459 15.984 7.5527 16.4932 9.10676 17.5113C9.38649 17.7022 9.79054 17.6386 9.97703 17.3204C10.1635 17.0341 10.1014 16.6204 9.79054 16.4295C9.79054 16.4295 9.75946 16.4295 9.75946 16.3977C7.95676 15.2522 5.71892 14.7113 2.70405 14.7113C2.67297 14.7113 2.64189 14.7113 2.64189 14.7113ZM20.2959 14.7113C17.25 14.7113 15.0432 15.2841 13.2405 16.3977C12.9297 16.5568 12.8365 16.9704 13.023 17.2568C13.1784 17.575 13.5824 17.6704 13.8622 17.4795C13.8622 17.4795 13.8932 17.4795 13.8932 17.4477C15.4784 16.4613 17.4054 15.9204 20.2959 15.9204C20.6378 15.9204 20.9176 15.6341 20.9176 15.2841C20.9486 14.9977 20.6689 14.7113 20.2959 14.7113C20.327 14.7113 20.327 14.7113 20.2959 14.7113ZM2.70405 17.6386C2.36216 17.6386 2.08243 17.925 2.08243 18.275C2.08243 18.625 2.36216 18.9113 2.70405 18.9113C2.70405 18.9113 2.70405 18.9113 2.73514 18.9113C5.62568 18.9113 7.58378 19.4204 9.13784 20.4386C9.41757 20.6295 9.82162 20.5659 10.0081 20.2477C10.1946 19.9613 10.1324 19.5477 9.82162 19.3568C9.82162 19.3568 9.79054 19.3568 9.79054 19.325C7.95676 18.2113 5.71892 17.6386 2.70405 17.6386ZM20.2959 17.6386C17.25 17.6386 15.0432 18.2113 13.2405 19.325C12.9297 19.484 12.8365 19.8977 13.023 20.1841C13.1784 20.5022 13.5824 20.5977 13.8622 20.4068C13.8622 20.4068 13.8932 20.4068 13.8932 20.375C15.4784 19.3886 17.4054 18.8477 20.2959 18.8477C20.6378 18.8477 20.9176 18.5613 20.9176 18.2113C20.9486 17.9568 20.6689 17.6704 20.2959 17.6386C20.327 17.6386 20.327 17.6386 20.2959 17.6386ZM2.64189 20.5977C2.3 20.6295 2.02027 20.9159 2.05135 21.2659C2.08243 21.6159 2.36216 21.9022 2.70405 21.8704C5.59459 21.8704 7.5527 22.3795 9.10676 23.3977C9.38649 23.5886 9.79054 23.4931 9.97703 23.1749C10.1635 22.8568 10.0703 22.475 9.75946 22.2841C7.95676 21.1386 5.71892 20.5977 2.70405 20.5977C2.67297 20.5977 2.64189 20.5977 2.64189 20.5977ZM20.2959 20.5977C17.25 20.5977 15.0432 21.1386 13.2405 22.2841C12.9608 22.475 12.8365 22.8568 13.023 23.1749C13.2095 23.4931 13.5824 23.5568 13.8932 23.3977C15.4784 22.4113 17.4054 21.8704 20.2959 21.8704C20.6378 21.8704 20.9176 21.584 20.9176 21.234C20.9486 20.884 20.6689 20.5977 20.2959 20.5977C20.327 20.5977 20.327 20.5977 20.2959 20.5977Z" fill="#32CD86"/>
</svg>
