<svg width="20" height="20" viewBox="0 0 20 20" fill="none" xmlns="http://www.w3.org/2000/svg">
<circle cx="9.78223" cy="9.80835" r="8.5" fill="#0099DE" stroke="white" stroke-width="2"/>
<path fill-rule="evenodd" clip-rule="evenodd" d="M9.78197 8.69149C10.0909 8.69149 10.3413 8.91254 10.3413 9.18522L10.3413 13.7956C10.3413 14.0683 10.0909 14.2893 9.78197 14.2893C9.47307 14.2893 9.22266 14.0683 9.22266 13.7956L9.22266 9.18522C9.22266 8.91254 9.47307 8.69149 9.78197 8.69149Z" fill="white"/>
<path d="M10.3413 6.55211C10.3413 6.86101 10.0909 7.11142 9.78197 7.11142C9.47307 7.11142 9.22266 6.86101 9.22266 6.55211C9.22266 6.24321 9.47307 5.9928 9.78197 5.9928C10.0909 5.9928 10.3413 6.24321 10.3413 6.55211Z" fill="white"/>
</svg>
