<svg width="11" height="14" viewBox="0 0 11 14" fill="none" xmlns="http://www.w3.org/2000/svg">
<path d="M6.20657 13.0006L5.41861 10.8831C5.97735 10.8027 6.46445 10.5213 6.79397 10.0924C6.80829 10.079 6.82262 10.0656 6.85127 10.0656H6.87993C7.45299 10.2398 8.06904 10.1862 8.5848 9.90476L9.35844 11.9955C9.41575 12.1697 9.31546 12.3439 9.14354 12.4109C9.07191 12.4377 8.98595 12.4377 8.89999 12.3975L7.81116 11.9821C7.66789 11.9285 7.49597 11.9821 7.42434 12.1027L6.85127 13.0542C6.76531 13.2151 6.55041 13.2687 6.37849 13.1883C6.29253 13.1481 6.23523 13.081 6.20657 13.0006ZM0.318318 5.69651C0.604851 5.34806 0.604851 4.85218 0.318318 4.50373C-0.0398483 4.06146 0.0604383 3.43156 0.533218 3.09651C0.633505 3.0295 0.733791 2.97589 0.848404 2.94909C1.29253 2.81507 1.60772 2.42641 1.59339 1.98414C1.57906 1.43465 2.05184 0.978983 2.63924 0.965581C2.76818 0.965581 2.88279 0.978983 2.9974 1.01919C3.11202 1.0594 3.22663 1.0728 3.34124 1.0728C3.68508 1.0728 4.0146 0.911973 4.21517 0.643931C4.55901 0.188261 5.23236 0.0810447 5.70514 0.402694C5.80543 0.469705 5.89139 0.550117 5.96302 0.643931C6.16359 0.911973 6.49311 1.0594 6.83695 1.0728C6.95156 1.0728 7.06617 1.0594 7.18079 1.01919C7.73953 0.844962 8.34125 1.113 8.54182 1.63568C8.5848 1.7429 8.59913 1.86352 8.59913 1.97074C8.59913 2.413 8.89999 2.80166 9.34411 2.93568C9.90285 3.09651 10.218 3.6594 10.0461 4.19548C10.0031 4.30269 9.96016 4.40991 9.88853 4.49032C9.60199 4.83878 9.60199 5.33465 9.88853 5.68311C10.2467 6.12538 10.1464 6.75527 9.67363 7.09032C9.57334 7.15733 9.47305 7.21094 9.35844 7.23775C8.91431 7.37177 8.59913 7.76043 8.61345 8.20269C8.62778 8.75218 8.155 9.20785 7.56761 9.22125C7.43867 9.22125 7.32405 9.20785 7.20944 9.16764C6.76531 9.02022 6.26388 9.16764 5.99167 9.5295C5.64783 9.98517 4.97448 10.0924 4.5017 9.77074C4.40142 9.70372 4.31546 9.62331 4.24382 9.5295C3.97162 9.16764 3.47018 9.02022 3.02606 9.15424C2.46732 9.32847 1.8656 9.06043 1.66502 8.53775C1.62204 8.43053 1.60772 8.30991 1.60772 8.20269C1.60772 7.76043 1.30686 7.37177 0.862731 7.23775C0.303991 7.07692 -0.011195 6.51404 0.160725 5.97795C0.189378 5.88414 0.246685 5.77692 0.318318 5.69651ZM3.41288 4.87898L4.05758 5.46867L3.89998 6.313C3.87133 6.44702 3.97162 6.58105 4.12921 6.60785C4.18652 6.62125 4.24382 6.60785 4.30113 6.58105L5.10342 6.17898L5.90571 6.58105C6.03465 6.64806 6.20657 6.59445 6.27821 6.47383C6.30686 6.42022 6.32119 6.36661 6.30686 6.313L6.14927 5.46867L6.79397 4.87898C6.90858 4.78517 6.90858 4.62434 6.79397 4.51713C6.75099 4.47692 6.69368 4.45012 6.63637 4.43672L5.73379 4.3161L5.33265 3.55218C5.26101 3.43156 5.10342 3.37795 4.97448 3.43156C4.91717 3.45836 4.87419 3.49857 4.84554 3.55218L4.4444 4.3161L3.54182 4.43672C3.39855 4.46352 3.28394 4.58414 3.31259 4.73156C3.34124 4.78517 3.3699 4.82538 3.41288 4.87898ZM4.00027 13.0006L4.78824 10.8831C4.2295 10.8027 3.74239 10.5213 3.41288 10.0924C3.39855 10.079 3.38422 10.0656 3.35557 10.0656H3.32692C2.75385 10.2398 2.1378 10.1862 1.62204 9.90476L0.862731 11.9821C0.805424 12.1563 0.905711 12.3305 1.07763 12.3975C1.16359 12.4243 1.24955 12.4243 1.32118 12.3841L2.41001 11.9687C2.55328 11.9151 2.7252 11.9687 2.79683 12.0893L3.3699 13.0408C3.45586 13.2017 3.67076 13.2553 3.84268 13.1749C3.91431 13.1481 3.97162 13.081 4.00027 13.0006Z" fill="#00AA54"/>
</svg>
